<?xml version="1.0" encoding="UTF-8" standalone="no"?><!DOCTYPE svg PUBLIC "-//W3C//DTD SVG 1.1//EN" "http://www.w3.org/Graphics/SVG/1.1/DTD/svg11.dtd"><svg width="100%" height="100%" viewBox="0 0 960 400" version="1.1" xmlns="http://www.w3.org/2000/svg" xmlns:xlink="http://www.w3.org/1999/xlink" xml:space="preserve" style="fill-rule:evenodd;clip-rule:evenodd;stroke-linejoin:round;stroke-miterlimit:1.41421;"><g id="companies"><g id="amazon"><path id="path8" d="M99.753,206.179c-5.676,4.183 -13.902,6.415 -20.985,6.415c-9.931,0 -18.872,-3.673 -25.636,-9.782c-0.531,-0.48 -0.055,-1.135 0.583,-0.761c7.299,4.247 16.325,6.802 25.648,6.802c6.288,0 13.205,-1.301 19.565,-4c0.961,-0.408 1.764,0.629 0.825,1.326" style="fill:#9090aa;"/><path id="path10" d="M102.112,203.48c-0.722,-0.927 -4.795,-0.438 -6.623,-0.222c-0.557,0.068 -0.642,-0.416 -0.141,-0.765c3.244,-2.283 8.567,-1.624 9.188,-0.859c0.62,0.77 -0.162,6.105 -3.21,8.652c-0.468,0.391 -0.914,0.183 -0.706,-0.336c0.685,-1.709 2.219,-5.539 1.492,-6.47" style="fill:#9090aa;"/><path id="path12" d="M95.616,186.376l0,-2.219c0,-0.336 0.255,-0.561 0.561,-0.561l9.936,0c0.319,0 0.574,0.229 0.574,0.561l0,1.9c-0.004,0.319 -0.272,0.736 -0.748,1.395l-5.149,7.35c1.913,-0.046 3.933,0.239 5.667,1.216c0.391,0.221 0.498,0.545 0.527,0.863l0,2.368c0,0.323 -0.357,0.702 -0.731,0.506c-3.057,-1.602 -7.117,-1.777 -10.496,0.017c-0.345,0.187 -0.706,-0.187 -0.706,-0.51l0,-2.249c0,-0.361 0.004,-0.978 0.365,-1.526l5.965,-8.554l-5.191,0c-0.319,0 -0.574,-0.225 -0.574,-0.557" style="fill:#9090aa;"/><path id="path14" d="M59.373,200.223l-3.023,0c-0.289,-0.021 -0.518,-0.238 -0.539,-0.514l0,-15.514c0,-0.31 0.259,-0.557 0.582,-0.557l2.819,0c0.293,0.013 0.527,0.238 0.548,0.519l0,2.028l0.055,0c0.736,-1.96 2.118,-2.874 3.98,-2.874c1.892,0 3.073,0.914 3.924,2.874c0.731,-1.96 2.393,-2.874 4.175,-2.874c1.266,0 2.652,0.523 3.498,1.696c0.957,1.305 0.761,3.202 0.761,4.864l-0.004,9.791c0,0.31 -0.259,0.561 -0.582,0.561l-3.019,0c-0.302,-0.021 -0.544,-0.264 -0.544,-0.561l0,-8.222c0,-0.655 0.06,-2.288 -0.085,-2.908c-0.225,-1.042 -0.901,-1.335 -1.777,-1.335c-0.731,0 -1.497,0.489 -1.807,1.271c-0.31,0.782 -0.28,2.092 -0.28,2.972l0,8.222c0,0.31 -0.26,0.561 -0.583,0.561l-3.018,0c-0.306,-0.021 -0.545,-0.264 -0.545,-0.561l-0.004,-8.222c0,-1.731 0.285,-4.277 -1.862,-4.277c-2.172,0 -2.087,2.483 -2.087,4.277l0,8.222c0,0.31 -0.26,0.561 -0.583,0.561" style="fill:#9090aa;"/><path id="path16" d="M115.241,183.311c4.485,0 6.912,3.852 6.912,8.749c0,4.732 -2.682,8.486 -6.912,8.486c-4.405,0 -6.803,-3.852 -6.803,-8.652c0,-4.829 2.428,-8.583 6.803,-8.583m0.025,3.167c-2.228,0 -2.368,3.036 -2.368,4.928c0,1.896 -0.03,5.943 2.343,5.943c2.342,0 2.453,-3.265 2.453,-5.255c0,-1.309 -0.056,-2.874 -0.451,-4.115c-0.34,-1.08 -1.016,-1.501 -1.977,-1.501" style="fill:#9090aa;"/><path id="path18" d="M127.969,200.223l-3.01,0c-0.302,-0.021 -0.544,-0.264 -0.544,-0.561l-0.004,-15.518c0.025,-0.285 0.276,-0.506 0.582,-0.506l2.802,0c0.264,0.013 0.48,0.192 0.54,0.434l0,2.372l0.055,0c0.846,-2.121 2.032,-3.133 4.12,-3.133c1.356,0 2.678,0.489 3.528,1.828c0.791,1.241 0.791,3.329 0.791,4.83l0,9.765c-0.034,0.272 -0.285,0.489 -0.582,0.489l-3.032,0c-0.276,-0.021 -0.505,-0.225 -0.535,-0.489l0,-8.426c0,-1.696 0.195,-4.179 -1.892,-4.179c-0.736,0 -1.412,0.493 -1.747,1.241c-0.426,0.948 -0.481,1.892 -0.481,2.938l0,8.354c-0.004,0.31 -0.268,0.561 -0.591,0.561" style="fill:#9090aa;"/><path id="path28" d="M87.696,192.813c0,1.177 0.03,2.159 -0.566,3.205c-0.48,0.851 -1.245,1.374 -2.091,1.374c-1.161,0 -1.841,-0.885 -1.841,-2.19c0,-2.576 2.308,-3.044 4.498,-3.044l0,0.655m3.048,7.367c-0.2,0.179 -0.489,0.192 -0.714,0.073c-1.003,-0.834 -1.186,-1.22 -1.735,-2.015c-1.658,1.692 -2.835,2.198 -4.982,2.198c-2.547,0 -4.524,-1.569 -4.524,-4.711c0,-2.453 1.327,-4.124 3.223,-4.94c1.641,-0.723 3.932,-0.85 5.684,-1.05l0,-0.391c0,-0.719 0.055,-1.569 -0.37,-2.19c-0.366,-0.557 -1.071,-0.786 -1.696,-0.786c-1.152,0 -2.177,0.591 -2.428,1.815c-0.051,0.272 -0.251,0.54 -0.527,0.553l-2.929,-0.315c-0.247,-0.055 -0.523,-0.255 -0.451,-0.633c0.672,-3.554 3.886,-4.626 6.76,-4.626c1.471,0 3.392,0.391 4.553,1.505c1.471,1.373 1.331,3.206 1.331,5.2l0,4.71c0,1.416 0.586,2.037 1.139,2.802c0.191,0.272 0.234,0.599 -0.013,0.803c-0.616,0.515 -1.713,1.471 -2.317,2.007l-0.004,-0.009" style="fill:#9090aa;"/><path id="path30" d="M48.069,192.813c0,1.177 0.03,2.159 -0.566,3.205c-0.48,0.851 -1.241,1.374 -2.091,1.374c-1.161,0 -1.837,-0.885 -1.837,-2.19c0,-2.576 2.309,-3.044 4.494,-3.044l0,0.655m3.048,7.367c-0.2,0.179 -0.489,0.192 -0.714,0.073c-1.004,-0.834 -1.182,-1.22 -1.735,-2.015c-1.658,1.692 -2.831,2.198 -4.982,2.198c-2.543,0 -4.524,-1.569 -4.524,-4.711c0,-2.453 1.331,-4.124 3.223,-4.94c1.641,-0.723 3.932,-0.85 5.684,-1.05l0,-0.391c0,-0.719 0.055,-1.569 -0.366,-2.19c-0.37,-0.557 -1.075,-0.786 -1.696,-0.786c-1.152,0 -2.181,0.591 -2.432,1.815c-0.051,0.272 -0.251,0.54 -0.523,0.553l-2.933,-0.315c-0.247,-0.055 -0.519,-0.255 -0.451,-0.633c0.676,-3.554 3.886,-4.626 6.76,-4.626c1.471,0 3.392,0.391 4.553,1.505c1.471,1.373 1.331,3.206 1.331,5.2l0,4.71c0,1.416 0.586,2.037 1.139,2.802c0.196,0.272 0.238,0.599 -0.008,0.803c-0.617,0.515 -1.714,1.471 -2.317,2.007l-0.009,-0.009" style="fill:#9090aa;"/></g><g id="intel"><path id="path6" d="M352.252,189.785c-2.699,-13.158 -28.159,-13.991 -44.571,-3.967l0,1.107c16.39,-8.46 39.647,-8.406 41.763,3.714c0.714,4.016 -1.533,8.192 -5.56,10.594l0,3.145c4.848,-1.779 9.804,-7.536 8.368,-14.593Zm-29.844,23.037c-11.326,1.048 -23.127,-0.602 -24.78,-9.487c-0.82,-4.375 1.177,-9.019 3.812,-11.9l0,-1.543c-4.751,4.182 -7.332,9.471 -5.841,15.717c1.9,8.014 12.028,12.55 27.49,11.04c6.122,-0.591 14.133,-2.569 19.694,-5.638l0,-4.359c-5.053,3.026 -13.411,5.526 -20.375,6.17Z" style="fill:#9090aa;fill-rule:nonzero;"/><path id="path81" d="M342.706,187.883l-3.8,0l0,13.282c0,1.56 0.954,2.917 3.8,3.132" style="fill:#9090aa;fill-rule:nonzero;"/><path id="path101" d="M307.335,192.737l-3.8,0l0,8.676c0,1.56 0.953,2.917 3.8,3.132" style="fill:#9090aa;fill-rule:nonzero;"/><rect id="rect12" x="303.535" y="188.286" width="3.8" height="3.8" style="fill:#9090aa;"/><path id="path141" d="M324.297,204.405c-2.407,0 -3.422,-1.68 -3.422,-3.337l0,-11.522l2.937,0l0,3.191l2.224,0l0,2.389l-2.224,0l0,5.764c0,0.678 0.324,1.05 1.025,1.05l1.199,0l0,2.465l-1.739,0" style="fill:#9090aa;fill-rule:nonzero;"/><path id="path161" d="M332.104,194.981c-1.004,0 -1.781,0.522 -2.105,1.227c-0.195,0.425 -0.259,0.748 -0.291,1.271l4.545,0c-0.065,-1.276 -0.637,-2.498 -2.149,-2.498m-2.396,4.51c0,1.513 0.949,2.626 2.612,2.626c1.307,0 1.954,-0.366 2.71,-1.113l1.814,1.749c-1.166,1.151 -2.386,1.851 -4.545,1.851c-2.818,0 -5.518,-1.545 -5.518,-6.044c0,-3.848 2.354,-6.022 5.453,-6.022c3.142,0 4.945,2.546 4.945,5.888l0,1.065l-7.471,0" style="fill:#9090aa;fill-rule:nonzero;"/><path id="path181" d="M314.505,195.126c0.863,0 1.22,0.426 1.22,1.12l0,8.175l2.947,0l0,-8.186c0,-1.663 -0.885,-3.498 -3.465,-3.498l-6.079,0l0,11.684l2.937,0l0,-9.295" style="fill:#9090aa;fill-rule:nonzero;"/></g><g id="microsoft"><path id="path5056" d="M917.327,63.553l0,-2.468l-3.064,0l0,-3.837l-0.103,0.032l-2.879,0.881l-0.057,0.017l0,2.907l-4.543,0l0,-1.619c0,-0.754 0.169,-1.332 0.501,-1.716c0.33,-0.381 0.802,-0.574 1.404,-0.574c0.433,0 0.881,0.102 1.332,0.303l0.113,0.05l0,-2.599l-0.053,-0.019c-0.421,-0.151 -0.993,-0.227 -1.702,-0.227c-0.894,0 -1.706,0.194 -2.415,0.58c-0.709,0.386 -1.266,0.937 -1.657,1.637c-0.389,0.7 -0.586,1.509 -0.586,2.403l0,1.781l-2.134,0l0,2.468l2.134,0l0,10.396l3.063,0l0,-10.396l4.543,0l0,6.607c0,2.721 1.284,4.1 3.815,4.1c0.416,0 0.854,-0.049 1.301,-0.145c0.455,-0.098 0.765,-0.195 0.947,-0.3l0.04,-0.024l0,-2.491l-0.124,0.083c-0.166,0.111 -0.373,0.201 -0.616,0.269c-0.244,0.068 -0.448,0.103 -0.605,0.103c-0.593,0 -1.032,-0.16 -1.304,-0.476c-0.276,-0.318 -0.415,-0.874 -0.415,-1.653l0,-6.073l3.064,0Zm-22.684,8.202c-1.112,0 -1.989,-0.369 -2.607,-1.095c-0.621,-0.73 -0.936,-1.771 -0.936,-3.093c0,-1.364 0.315,-2.432 0.937,-3.175c0.618,-0.738 1.486,-1.112 2.581,-1.112c1.062,0 1.907,0.358 2.513,1.064c0.609,0.709 0.918,1.768 0.918,3.149c0,1.397 -0.291,2.47 -0.864,3.187c-0.568,0.713 -1.424,1.075 -2.542,1.075Zm0.136,-10.98c-2.121,0 -3.806,0.621 -5.008,1.847c-1.2,1.227 -1.809,2.923 -1.809,5.044c0,2.014 0.594,3.634 1.766,4.815c1.172,1.18 2.767,1.778 4.741,1.778c2.056,0 3.707,-0.63 4.908,-1.873c1.201,-1.241 1.809,-2.922 1.809,-4.993c0,-2.046 -0.571,-3.678 -1.697,-4.85c-1.127,-1.174 -2.712,-1.768 -4.71,-1.768Zm-11.756,0c-1.443,0 -2.637,0.369 -3.548,1.097c-0.918,0.732 -1.383,1.692 -1.383,2.854c0,0.604 0.1,1.14 0.298,1.595c0.199,0.457 0.507,0.859 0.916,1.196c0.405,0.334 1.032,0.685 1.862,1.042c0.697,0.287 1.218,0.53 1.548,0.721c0.323,0.188 0.553,0.376 0.682,0.56c0.126,0.18 0.19,0.425 0.19,0.729c0,0.864 -0.647,1.285 -1.979,1.285c-0.494,0 -1.058,-0.103 -1.675,-0.307c-0.618,-0.203 -1.195,-0.495 -1.715,-0.869l-0.127,-0.091l0,2.949l0.047,0.022c0.433,0.2 0.98,0.368 1.624,0.501c0.643,0.133 1.227,0.201 1.734,0.201c1.566,0 2.827,-0.371 3.747,-1.103c0.926,-0.737 1.395,-1.72 1.395,-2.922c0,-0.867 -0.252,-1.611 -0.75,-2.211c-0.495,-0.595 -1.353,-1.141 -2.55,-1.623c-0.954,-0.383 -1.565,-0.701 -1.817,-0.945c-0.243,-0.236 -0.367,-0.569 -0.367,-0.991c0,-0.374 0.153,-0.674 0.465,-0.917c0.315,-0.244 0.754,-0.368 1.304,-0.368c0.51,0 1.033,0.081 1.552,0.239c0.519,0.158 0.975,0.37 1.355,0.629l0.125,0.085l0,-2.798l-0.048,-0.02c-0.351,-0.151 -0.814,-0.28 -1.376,-0.384c-0.56,-0.104 -1.068,-0.156 -1.509,-0.156Zm-12.917,10.98c-1.112,0 -1.989,-0.369 -2.607,-1.095c-0.621,-0.73 -0.936,-1.77 -0.936,-3.093c0,-1.364 0.315,-2.432 0.937,-3.175c0.618,-0.738 1.486,-1.112 2.581,-1.112c1.062,0 1.907,0.358 2.513,1.064c0.609,0.709 0.918,1.768 0.918,3.149c0,1.397 -0.291,2.47 -0.864,3.187c-0.568,0.713 -1.423,1.075 -2.542,1.075Zm0.136,-10.98c-2.121,0 -3.806,0.621 -5.007,1.847c-1.201,1.227 -1.81,2.923 -1.81,5.044c0,2.015 0.595,3.634 1.767,4.815c1.172,1.18 2.767,1.778 4.74,1.778c2.056,0 3.708,-0.63 4.909,-1.873c1.2,-1.241 1.809,-2.922 1.809,-4.993c0,-2.046 -0.571,-3.678 -1.698,-4.85c-1.127,-1.174 -2.712,-1.768 -4.71,-1.768Zm-11.467,2.538l0,-2.228l-3.026,0l0,12.864l3.026,0l0,-6.58c0,-1.119 0.254,-2.039 0.754,-2.733c0.494,-0.686 1.153,-1.034 1.957,-1.034c0.273,0 0.579,0.045 0.91,0.134c0.328,0.089 0.566,0.184 0.706,0.285l0.127,0.093l0,-3.051l-0.049,-0.021c-0.282,-0.12 -0.68,-0.18 -1.185,-0.18c-0.76,0 -1.441,0.244 -2.024,0.725c-0.511,0.423 -0.881,1.003 -1.164,1.726l-0.032,0Zm-8.445,-2.538c-1.388,0 -2.627,0.298 -3.68,0.884c-1.056,0.589 -1.872,1.428 -2.427,2.496c-0.553,1.065 -0.834,2.31 -0.834,3.697c0,1.216 0.273,2.331 0.81,3.314c0.539,0.985 1.301,1.755 2.265,2.289c0.963,0.534 2.076,0.805 3.308,0.805c1.438,0 2.666,-0.288 3.65,-0.855l0.04,-0.023l0,-2.772l-0.127,0.093c-0.446,0.325 -0.944,0.584 -1.48,0.771c-0.535,0.186 -1.023,0.281 -1.45,0.281c-1.188,0 -2.141,-0.372 -2.833,-1.104c-0.693,-0.734 -1.045,-1.764 -1.045,-3.06c0,-1.304 0.367,-2.36 1.089,-3.14c0.721,-0.777 1.676,-1.171 2.838,-1.171c0.995,0 1.964,0.337 2.881,1.002l0.127,0.092l0,-2.921l-0.041,-0.023c-0.345,-0.193 -0.815,-0.353 -1.4,-0.474c-0.582,-0.12 -1.15,-0.181 -1.691,-0.181Zm-9.025,0.31l-3.026,0l0,12.864l3.026,0l0,-12.864Zm-1.482,-5.48c-0.498,0 -0.932,0.169 -1.289,0.505c-0.359,0.337 -0.541,0.761 -0.541,1.262c0,0.493 0.18,0.909 0.535,1.237c0.353,0.327 0.788,0.493 1.295,0.493c0.507,0 0.944,-0.166 1.301,-0.492c0.359,-0.329 0.541,-0.745 0.541,-1.238c0,-0.483 -0.177,-0.903 -0.526,-1.248c-0.349,-0.345 -0.792,-0.519 -1.316,-0.519Zm-7.55,4.531l0,13.813l3.088,0l0,-17.95l-4.274,0l-5.433,13.333l-5.272,-13.333l-4.448,0l0,17.95l2.902,0l0,-13.815l0.099,0l5.568,13.815l2.19,0l5.48,-13.813l0.1,0Z" style="fill:#9090aa;fill-rule:nonzero;"/><path id="path5058" d="M791.235,64.235l-14.235,0l0,-14.235l14.235,0l0,14.235Z" style="fill:#9090aa;fill-rule:nonzero;"/><path id="path5060" d="M806.953,64.235l-14.235,0l0,-14.235l14.235,0l0,14.235Z" style="fill:#9090aa;fill-rule:nonzero;"/><path id="path5062" d="M791.235,79.959l-14.235,0l0,-14.236l14.235,0l0,14.236Z" style="fill:#9090aa;fill-rule:nonzero;"/><path id="path5064" d="M806.953,79.959l-14.235,0l0,-14.236l14.235,0l0,14.236Z" style="fill:#9090aa;fill-rule:nonzero;"/></g><g id="oracle"><path id="path16197" d="M568.877,200.955l9.915,0l-5.242,-8.435l-9.623,15.251l-4.379,0l11.704,-18.319c0.509,-0.74 1.357,-1.187 2.298,-1.187c0.909,0 1.758,0.431 2.251,1.156l11.75,18.35l-4.379,0l-2.066,-3.408l-10.039,0l-2.19,-3.408Zm45.49,3.408l0,-15.913l-3.717,0l0,17.471c0,0.478 0.186,0.94 0.54,1.295c0.355,0.355 0.833,0.555 1.357,0.555l16.947,0l2.189,-3.408l-17.316,0Zm-61.48,-2.853c3.608,0 6.538,-2.914 6.538,-6.522c0,-3.609 -2.93,-6.538 -6.538,-6.538l-16.258,0l0,19.321l3.715,0l0,-15.914l12.296,0c1.727,0 3.115,1.404 3.115,3.131c0,1.727 -1.388,3.13 -3.115,3.13l-10.476,-0.015l11.093,9.668l5.397,0l-7.463,-6.261l1.696,0Zm-39.126,6.261c-5.334,0 -9.662,-4.318 -9.662,-9.653c0,-5.335 4.328,-9.668 9.662,-9.668l11.231,0c5.335,0 9.66,4.333 9.66,9.668c0,5.335 -4.325,9.653 -9.66,9.653l-11.231,0Zm10.981,-3.408c3.456,0 6.254,-2.791 6.254,-6.245c0,-3.454 -2.798,-6.261 -6.254,-6.261l-10.732,0c-3.455,0 -6.255,2.807 -6.255,6.261c0,3.454 2.8,6.245 6.255,6.245l10.732,0Zm70.565,3.408c-5.335,0 -9.668,-4.318 -9.668,-9.653c0,-5.335 4.333,-9.668 9.668,-9.668l13.339,0l-2.174,3.407l-10.918,0c-3.454,0 -6.26,2.807 -6.26,6.261c0,3.454 2.806,6.245 6.26,6.245l13.4,0l-2.189,3.408l-11.458,0Zm45.444,-3.408c-2.853,0 -5.274,-1.912 -6.014,-4.549l15.882,0l2.19,-3.408l-18.072,0c0.74,-2.621 3.161,-4.549 6.014,-4.549l10.902,0l2.205,-3.407l-13.354,0c-5.336,0 -9.669,4.333 -9.669,9.668c0,5.335 4.333,9.653 9.669,9.653l11.457,0l2.19,-3.408l-13.4,0Z" style="fill:#9090aa;fill-rule:nonzero;"/><path id="path16199" d="M655.847,190.5c0,-0.94 0.755,-1.696 1.696,-1.696c0.956,0 1.712,0.756 1.712,1.696c0,0.956 -0.756,1.712 -1.712,1.712c-0.941,0 -1.696,-0.756 -1.696,-1.712Zm1.696,2.19c1.203,0 2.174,-0.971 2.174,-2.174c0,-1.203 -0.971,-2.174 -2.174,-2.174c-1.187,0 -2.159,0.971 -2.159,2.174c0,1.203 0.972,2.174 2.159,2.174Zm-0.2,-3.469c0.339,0 0.478,0.015 0.632,0.077c0.432,0.138 0.478,0.524 0.478,0.678c0,0.031 0,0.108 -0.031,0.201c-0.015,0.092 -0.077,0.277 -0.293,0.416c-0.031,0.015 -0.046,0.031 -0.108,0.062l0.555,1.002l-0.54,0l-0.493,-0.925l-0.339,0l0,0.925l-0.478,0l0,-2.436l0.617,0Zm0.207,1.27c0.174,-0.019 0.347,-0.019 0.451,-0.189c0.052,-0.075 0.069,-0.151 0.069,-0.265c0,-0.151 -0.086,-0.283 -0.208,-0.359c-0.121,-0.056 -0.242,-0.056 -0.502,-0.056l-0.156,0l0,0.869l0.346,0Z" style="fill:#9090aa;fill-rule:nonzero;"/></g><path id="path10484" d="M875.4,324.029l-3.769,0.01l0,19.331l17.285,0c1.891,-0.802 2.903,-2.188 3.295,-3.807l-16.821,0l0.01,-15.534Zm28.206,3.863l14.419,0c2.003,-0.396 3.495,-2.164 3.913,-3.873l-22.248,0c0.416,1.709 1.93,3.477 3.916,3.873Zm-46.694,-0.054c2.003,-0.582 3.691,-2.11 4.102,-3.804l-21.157,0l0,11.422l17.317,0l0,4.01l-13.582,0.012c-2.131,0.592 -3.931,2.019 -4.834,3.907l1.099,-0.02l21.039,0l0,-11.706l-17.304,0l0,-3.821l13.32,0Zm43.36,15.527l3.75,0l0,-7.782l13.65,0l0,7.782l3.748,0l0,-11.671l-21.148,-0.02l0,11.691Zm-89.556,-15.485l14.416,0c2.006,-0.399 3.496,-2.166 3.914,-3.875l-22.245,0c0.415,1.709 1.927,3.476 3.915,3.875Zm-37.505,-3.831c0.433,1.691 1.898,3.415 3.906,3.85l6.069,0l0.308,0.122l0,15.305l3.791,0l0,-15.305l0.342,-0.122l6.076,0c2.028,-0.523 3.461,-2.159 3.889,-3.85l0,-0.037l-24.381,0l0,0.037Zm37.505,19.319l14.416,0c2.006,-0.401 3.496,-2.164 3.914,-3.875l-22.245,0c0.415,1.711 1.927,3.474 3.915,3.875Zm0,-7.848l14.416,0c2.006,-0.396 3.496,-2.164 3.914,-3.873l-22.245,0c0.415,1.709 1.927,3.477 3.915,3.873Z" style="fill:#9090aa;fill-rule:nonzero;"/><path id="Shape" d="M78.642,83.553c17.356,0 26.847,-14.378 26.847,-26.847c0,-0.408 -0.008,-0.815 -0.027,-1.22c1.843,-1.331 3.444,-2.994 4.707,-4.886c-1.691,0.752 -3.51,1.258 -5.419,1.486c1.948,-1.168 3.444,-3.016 4.15,-5.219c-1.824,1.081 -3.842,1.866 -5.992,2.29c-1.722,-1.834 -4.173,-2.981 -6.888,-2.981c-5.21,0 -9.436,4.226 -9.436,9.435c0,0.74 0.083,1.46 0.245,2.151c-7.843,-0.395 -14.796,-4.149 -19.45,-9.858c-0.811,1.394 -1.278,3.014 -1.278,4.742c0,3.274 1.666,6.164 4.199,7.854c-1.548,-0.047 -3.002,-0.472 -4.273,-1.18c-0.002,0.04 -0.002,0.078 -0.002,0.121c0,4.569 3.253,8.385 7.57,9.249c-0.793,0.216 -1.627,0.332 -2.488,0.332c-0.607,0 -1.198,-0.059 -1.773,-0.17c1.201,3.749 4.684,6.478 8.814,6.554c-3.229,2.531 -7.298,4.039 -11.719,4.039c-0.761,0 -1.512,-0.044 -2.251,-0.131c4.176,2.677 9.135,4.239 14.464,4.239" style="fill:#9090aa;fill-rule:nonzero;"/><path id="Shape1" d="M850.092,189.036c0,1.296 -1.044,2.34 -2.34,2.34c-1.296,0 -2.34,-1.044 -2.34,-2.34c0,-1.296 1.008,-2.34 2.34,-2.34c1.332,0.036 2.34,1.08 2.34,2.34Zm-9.648,4.716l0,0.576c0,0 -1.116,-1.44 -3.492,-1.44c-3.924,0 -6.984,2.988 -6.984,7.128c0,4.104 3.024,7.128 6.984,7.128c2.412,0 3.492,-1.476 3.492,-1.476l0,0.612c0,0.288 0.216,0.504 0.504,0.504l2.916,0l0,-13.536l-2.916,0c-0.288,0 -0.504,0.252 -0.504,0.504Zm0,8.676c-0.54,0.792 -1.62,1.476 -2.916,1.476c-2.304,0 -4.068,-1.44 -4.068,-3.888c0,-2.448 1.764,-3.888 4.068,-3.888c1.26,0 2.412,0.72 2.916,1.476l0,4.824Zm5.58,-9.18l3.6,0l0,13.536l-3.6,0l0,-13.536Zm51.624,-0.36c-2.376,0 -3.492,1.44 -3.492,1.44l0,-7.596l-3.456,0l0,20.052l2.916,0c0.288,0 0.504,-0.252 0.504,-0.504l0,-0.612c0,0 1.116,1.476 3.492,1.476c3.924,0 6.984,-3.024 6.984,-7.128c0,-4.104 -3.06,-7.128 -6.948,-7.128Zm-0.576,10.98c-1.332,0 -2.376,-0.684 -2.916,-1.476l0,-4.824c0.54,-0.72 1.692,-1.476 2.916,-1.476c2.304,0 4.068,1.44 4.068,3.888c0,2.448 -1.764,3.888 -4.068,3.888Zm-8.172,-5.112l0,8.064l-3.456,0l0,-7.668c0,-2.232 -0.72,-3.132 -2.664,-3.132c-1.044,0 -2.124,0.54 -2.808,1.332l0,9.432l-3.456,0l0,-13.536l2.736,0c0.288,0 0.504,0.252 0.504,0.504l0,0.576c1.008,-1.044 2.34,-1.44 3.672,-1.44c1.512,0 2.772,0.432 3.78,1.296c1.224,1.008 1.692,2.304 1.692,4.572Zm-20.772,-5.868c-2.376,0 -3.492,1.44 -3.492,1.44l0,-7.596l-3.456,0l0,20.052l2.916,0c0.288,0 0.504,-0.252 0.504,-0.504l0,-0.612c0,0 1.116,1.476 3.492,1.476c3.924,0 6.984,-3.024 6.984,-7.128c0.036,-4.104 -3.024,-7.128 -6.948,-7.128Zm-0.576,10.98c-1.332,0 -2.376,-0.684 -2.916,-1.476l0,-4.824c0.54,-0.72 1.692,-1.476 2.916,-1.476c2.304,0 4.068,1.44 4.068,3.888c0,2.448 -1.764,3.888 -4.068,3.888Zm-9.36,-10.98c1.044,0 1.584,0.18 1.584,0.18l0,3.204c0,0 -2.88,-0.972 -4.68,1.08l0,9.468l-3.456,0l0,-13.572l2.916,0c0.288,0 0.504,0.252 0.504,0.504l0,0.576c0.648,-0.756 2.052,-1.44 3.132,-1.44Zm-35.892,12.672c-0.18,-0.432 -0.36,-0.9 -0.54,-1.296c-0.288,-0.648 -0.576,-1.26 -0.828,-1.836l-0.036,-0.036c-2.484,-5.4 -5.148,-10.872 -7.956,-16.272l-0.108,-0.216c-0.288,-0.54 -0.576,-1.116 -0.864,-1.692c-0.36,-0.648 -0.72,-1.332 -1.296,-1.98c-1.152,-1.44 -2.808,-2.232 -4.572,-2.232c-1.8,0 -3.42,0.792 -4.608,2.16c-0.54,0.648 -0.936,1.332 -1.296,1.98c-0.288,0.576 -0.576,1.152 -0.864,1.692l-0.108,0.216c-2.772,5.4 -5.472,10.872 -7.956,16.272l-0.036,0.072c-0.252,0.576 -0.54,1.188 -0.828,1.836c-0.18,0.396 -0.36,0.828 -0.54,1.296c-0.468,1.332 -0.612,2.592 -0.432,3.888c0.396,2.7 2.196,4.968 4.68,5.976c0.936,0.396 1.908,0.576 2.916,0.576c0.288,0 0.648,-0.036 0.936,-0.072c1.188,-0.144 2.412,-0.54 3.6,-1.224c1.476,-0.828 2.88,-2.016 4.464,-3.744c1.584,1.728 3.024,2.916 4.464,3.744c1.188,0.684 2.412,1.08 3.6,1.224c0.288,0.036 0.648,0.072 0.936,0.072c1.008,0 2.016,-0.18 2.916,-0.576c2.52,-1.008 4.284,-3.312 4.68,-5.976c0.288,-1.26 0.144,-2.52 -0.324,-3.852Zm-16.236,1.872c-1.944,-2.448 -3.204,-4.752 -3.636,-6.696c-0.18,-0.828 -0.216,-1.548 -0.108,-2.196c0.072,-0.576 0.288,-1.08 0.576,-1.512c0.684,-0.972 1.836,-1.584 3.168,-1.584c1.332,0 2.52,0.576 3.168,1.584c0.288,0.432 0.504,0.936 0.576,1.512c0.108,0.648 0.072,1.404 -0.108,2.196c-0.432,1.908 -1.692,4.212 -3.636,6.696Zm14.364,1.692c-0.252,1.872 -1.512,3.492 -3.276,4.212c-0.864,0.36 -1.8,0.468 -2.736,0.36c-0.9,-0.108 -1.8,-0.396 -2.736,-0.936c-1.296,-0.72 -2.592,-1.836 -4.104,-3.492c2.376,-2.916 3.816,-5.58 4.356,-7.956c0.252,-1.116 0.288,-2.124 0.18,-3.06c-0.144,-0.9 -0.468,-1.728 -0.972,-2.448c-1.116,-1.62 -2.988,-2.556 -5.076,-2.556c-2.088,0 -3.96,0.972 -5.076,2.556c-0.504,0.72 -0.828,1.548 -0.972,2.448c-0.144,0.936 -0.108,1.98 0.18,3.06c0.54,2.376 2.016,5.076 4.356,7.992c-1.476,1.656 -2.808,2.772 -4.104,3.492c-0.936,0.54 -1.836,0.828 -2.736,0.936c-0.972,0.108 -1.908,-0.036 -2.736,-0.36c-1.764,-0.72 -3.024,-2.34 -3.276,-4.212c-0.108,-0.9 -0.036,-1.8 0.324,-2.808c0.108,-0.36 0.288,-0.72 0.468,-1.152c0.252,-0.576 0.54,-1.188 0.828,-1.8l0.036,-0.072c2.484,-5.364 5.148,-10.836 7.92,-16.164l0.108,-0.216c0.288,-0.54 0.576,-1.116 0.864,-1.656c0.288,-0.576 0.612,-1.116 1.008,-1.584c0.756,-0.864 1.764,-1.332 2.88,-1.332c1.116,0 2.124,0.468 2.88,1.332c0.396,0.468 0.72,1.008 1.008,1.584c0.288,0.54 0.576,1.116 0.864,1.656l0.108,0.216c2.736,5.364 5.4,10.836 7.884,16.2l0,0.036c0.288,0.576 0.54,1.224 0.828,1.8c0.18,0.432 0.36,0.792 0.468,1.152c0.288,0.936 0.396,1.836 0.252,2.772Z" style="fill:#9090aa;fill-rule:nonzero;"/><path id="Shape2" d="M597.135,344.485c-0.568,1.311 -1.24,2.518 -2.019,3.628c-1.061,1.513 -1.93,2.561 -2.599,3.142c-1.038,0.955 -2.151,1.444 -3.342,1.472c-0.855,0 -1.886,-0.244 -3.086,-0.737c-1.204,-0.491 -2.311,-0.735 -3.323,-0.735c-1.061,0 -2.199,0.244 -3.416,0.735c-1.22,0.493 -2.202,0.75 -2.953,0.776c-1.142,0.049 -2.28,-0.454 -3.417,-1.511c-0.725,-0.632 -1.632,-1.717 -2.719,-3.253c-1.166,-1.64 -2.124,-3.543 -2.875,-5.712c-0.804,-2.342 -1.208,-4.61 -1.208,-6.807c0,-2.515 0.544,-4.685 1.633,-6.503c0.855,-1.461 1.994,-2.613 3.419,-3.458c1.424,-0.846 2.964,-1.277 4.622,-1.305c0.907,0 2.096,0.281 3.575,0.832c1.474,0.554 2.42,0.834 2.835,0.834c0.311,0 1.362,-0.328 3.145,-0.982c1.685,-0.607 3.108,-0.858 4.273,-0.759c3.159,0.255 5.531,1.5 7.109,3.743c-2.824,1.711 -4.221,4.108 -4.194,7.183c0.026,2.396 0.895,4.389 2.602,5.971c0.774,0.735 1.639,1.302 2.6,1.706c-0.208,0.604 -0.428,1.184 -0.662,1.74Zm-7.244,-28.503c0,1.878 -0.686,3.631 -2.053,5.253c-1.649,1.929 -3.645,3.043 -5.809,2.867c-0.027,-0.225 -0.043,-0.462 -0.043,-0.711c0,-1.802 0.784,-3.731 2.178,-5.308c0.695,-0.798 1.58,-1.462 2.653,-1.992c1.07,-0.522 2.083,-0.81 3.035,-0.86c0.028,0.251 0.039,0.502 0.039,0.751l0,0Z" style="fill:#9090aa;fill-rule:nonzero;"/><g id="google"><path id="Shape3" d="M575.583,65.727c0,4.256 -3.33,7.393 -7.416,7.393c-4.087,0 -7.417,-3.137 -7.417,-7.393c0,-4.287 3.33,-7.394 7.417,-7.394c4.086,0 7.416,3.107 7.416,7.394Zm-3.246,0c0,-2.66 -1.93,-4.48 -4.17,-4.48c-2.24,0 -4.17,1.82 -4.17,4.48c0,2.633 1.93,4.48 4.17,4.48c2.24,0 4.17,-1.85 4.17,-4.48Z" style="fill:#9090aa;fill-rule:nonzero;"/><path id="Shape4" d="M591.583,65.727c0,4.256 -3.33,7.393 -7.416,7.393c-4.087,0 -7.417,-3.137 -7.417,-7.393c0,-4.284 3.33,-7.394 7.417,-7.394c4.086,0 7.416,3.107 7.416,7.394Zm-3.246,0c0,-2.66 -1.93,-4.48 -4.17,-4.48c-2.24,0 -4.17,1.82 -4.17,4.48c0,2.633 1.93,4.48 4.17,4.48c2.24,0 4.17,-1.85 4.17,-4.48Z" style="fill:#9090aa;fill-rule:nonzero;"/><path id="Shape5" d="M606.917,58.78l0,13.273c0,5.46 -3.22,7.69 -7.027,7.69c-3.583,0 -5.74,-2.396 -6.553,-4.356l2.826,-1.177c0.504,1.203 1.737,2.623 3.724,2.623c2.436,0 3.946,-1.503 3.946,-4.333l0,-1.063l-0.113,0c-0.727,0.896 -2.127,1.68 -3.893,1.68c-3.697,0 -7.084,-3.22 -7.084,-7.364c0,-4.173 3.387,-7.42 7.084,-7.42c1.763,0 3.163,0.784 3.893,1.654l0.113,0l0,-1.204l3.084,0l0,-0.003Zm-2.854,6.973c0,-2.603 -1.736,-4.506 -3.946,-4.506c-2.24,0 -4.117,1.903 -4.117,4.506c0,2.577 1.877,4.454 4.117,4.454c2.21,0 3.946,-1.877 3.946,-4.454Z" style="fill:#9090aa;fill-rule:nonzero;"/><path id="Shape6" d="M612,51l0,21.667l-3.167,0l0,-21.667l3.167,0Z" style="fill:#9090aa;fill-rule:nonzero;"/><path id="Shape7" d="M624.34,68.16l2.52,1.68c-0.813,1.203 -2.773,3.277 -6.16,3.277c-4.2,0 -7.337,-3.247 -7.337,-7.394c0,-4.396 3.164,-7.393 6.974,-7.393c3.836,0 5.713,3.053 6.326,4.703l0.337,0.84l-9.883,4.094c0.756,1.483 1.933,2.24 3.583,2.24c1.653,0 2.8,-0.814 3.64,-2.047Zm-7.757,-2.66l6.607,-2.743c-0.363,-0.924 -1.457,-1.567 -2.743,-1.567c-1.65,0 -3.947,1.457 -3.864,4.31Z" style="fill:#9090aa;fill-rule:nonzero;"/><path id="Shape8" d="M548.763,63.803l0,-3.136l10.57,0c0.104,0.546 0.157,1.193 0.157,1.893c0,2.353 -0.643,5.263 -2.717,7.337c-2.016,2.1 -4.593,3.22 -8.006,3.22c-6.327,0 -11.647,-5.154 -11.647,-11.48c0,-6.327 5.32,-11.48 11.647,-11.48c3.5,0 5.993,1.373 7.866,3.163l-2.213,2.213c-1.343,-1.26 -3.163,-2.24 -5.657,-2.24c-4.62,0 -8.233,3.724 -8.233,8.344c0,4.62 3.613,8.343 8.233,8.343c2.997,0 4.704,-1.203 5.797,-2.297c0.887,-0.886 1.47,-2.153 1.7,-3.883l-7.497,0.003Z" style="fill:#9090aa;fill-rule:nonzero;"/></g><g id="uber"><path id="Fill-1" d="M51.554,323.531l0,12.111c0,4.044 -1.79,5.724 -5.989,5.724c-4.2,0 -5.99,-1.68 -5.99,-5.724l0,-12.642l-4.044,0c-0.354,0 -0.531,0.177 -0.531,0.531l0,12.31c0,6.763 4.31,9.128 10.565,9.128c6.254,0 10.564,-2.365 10.564,-9.128l0,-12.841l-4.045,0c-0.353,0 -0.53,0.177 -0.53,0.531" style="fill:#9090aa;fill-rule:nonzero;"/><path id="Fill-2" d="M110.186,326.514c0.331,0 0.486,-0.11 0.596,-0.354l1.172,-2.895c0.066,-0.176 0,-0.265 -0.177,-0.265l-16.289,0c-1.525,0 -2.099,0.464 -2.099,1.503l0,18.808c0,0.884 0.441,1.282 1.613,1.282l15.184,0c0.331,0 0.486,-0.111 0.596,-0.353l1.172,-2.896c0.066,-0.177 0,-0.265 -0.177,-0.265l-13.902,0l0,-3.824c0,-1.326 0.73,-1.923 2.696,-1.923l6.034,0c0.332,0 0.486,-0.11 0.597,-0.353l1.127,-2.785c0.066,-0.177 0,-0.265 -0.177,-0.265l-10.277,0l0,-5.415l12.311,0" style="fill:#9090aa;fill-rule:nonzero;"/><path id="Fill-3" d="M77.267,341.123l-7.981,0l0,-3.956c0,-1.326 0.73,-1.923 2.697,-1.923l5.284,0c2.542,0 3.249,0.973 3.249,2.962c0,1.989 -0.707,2.917 -3.249,2.917Zm-7.981,-14.653l7.141,0c2.387,0 3.051,0.899 3.051,2.762c0,1.864 -0.664,2.763 -3.051,2.763l-7.141,0l0,-5.525Zm12.225,6.741c1.768,-0.928 2.497,-2.674 2.497,-4.73c0,-4.774 -3.89,-5.481 -7.912,-5.481l-9.194,0c-1.525,0 -2.1,0.464 -2.1,1.503l0,18.808c0,0.884 0.442,1.282 1.614,1.282l11.316,0c4.265,0 7.315,-1.657 7.315,-5.967c0,-2.586 -1.105,-4.774 -3.536,-5.415Z" style="fill:#9090aa;fill-rule:nonzero;"/><path id="Fill-4" d="M131.744,333.012l-7.514,0l0,-6.542l7.514,0c2.807,0 3.426,1.083 3.426,3.271c0,2.21 -0.619,3.271 -3.426,3.271Zm8.443,11.205l-4.84,-8.31c2.409,-0.618 4.354,-2.21 4.354,-6.254c0,-5.238 -3.249,-6.653 -8.62,-6.653l-9.238,0c-1.525,0 -2.1,0.464 -2.1,1.503l0,19.56c0,0.353 0.177,0.53 0.531,0.53l3.956,0l0,-6.299c0,-1.326 0.729,-1.923 2.696,-1.923l3.978,0l4.376,7.869c0.133,0.22 0.266,0.353 0.597,0.353l4.111,0c0.288,0 0.288,-0.243 0.199,-0.376Z" style="fill:#9090aa;fill-rule:nonzero;"/></g><g id="facebook"><path id="Fill-11" d="M329.42,70.447c-0.197,1.392 -1.303,2.121 -2.616,2.019c-0.328,-0.026 -0.625,-0.093 -0.892,-0.198c-1.058,-0.608 -1.378,-1.627 -1.471,-2.268c-0.001,0.001 -0.002,0.001 -0.002,0.002c-0.072,-0.991 -0.15,-3.061 0.332,-4.04c0.409,-0.75 1.123,-1.158 2.071,-1.19c1.346,-0.044 2.364,0.625 2.565,1.993c0.177,1.206 0.186,2.477 0.013,3.682Zm-0.668,-9.144c-1.688,-0.181 -3.149,0.332 -4.383,1.819l0,-9.122l-4.471,0.542l0,21.114l4.471,0l0,-1.254c0.603,0.431 1.189,0.95 1.875,1.196c2.605,0.935 6.04,0.173 7.241,-3.317c0.772,-2.239 0.752,-4.534 0.171,-6.798c-0.644,-2.516 -2.315,-3.904 -4.904,-4.18Z" style="fill:#9090aa;"/><path id="Fill-21" d="M344.785,70.22c-0.015,0.093 -0.031,0.185 -0.052,0.276c-0.297,1.322 -1.254,2.037 -2.532,1.977c-1.373,-0.063 -2.315,-0.867 -2.447,-2.241c-0.096,-1.005 -0.103,-2.03 -0.02,-3.035c0.13,-1.586 1.12,-2.453 2.605,-2.424c1.221,0.024 2.091,0.717 2.401,1.892c0.281,1.183 0.072,3.286 0.045,3.555Zm-0.19,-8.656c-1.553,-0.417 -3.122,-0.412 -4.672,0.002c-2.321,0.619 -3.877,2.09 -4.378,4.43c-0.274,1.278 -0.328,2.635 -0.256,3.944c0.166,2.996 2.014,5.129 4.884,5.792c0.041,0.009 0.083,0.016 0.124,0.026l-0.001,0c0,0 0.008,0.001 0.021,0.004c0.11,0.022 0.221,0.043 0.331,0.06c0.037,0.003 0.075,0.006 0.112,0.009l0.003,0c0.139,0.026 0.306,0.045 0.482,0.059c0.561,0.06 1.276,0.102 1.873,0.032c0.004,0 0.006,-0.001 0.009,-0.002c0.031,0 0.061,0 0.092,-0.002c2.963,-0.155 5.211,-2.026 5.867,-4.897c0.361,-1.575 0.361,-3.158 0.012,-4.733c-0.545,-2.474 -2.042,-4.065 -4.503,-4.724Z" style="fill:#9090aa;"/><path id="Fill-31" d="M277.486,61.489l-3.191,0l0,-2.125c0.233,-2.01 3.546,-1.628 3.546,-1.628l0.002,-0.137l-0.002,-0.016l0,-3.301l0,0l0,0l-0.003,0c-0.114,-0.027 -6.59,-1.567 -7.877,3.371c0,0.001 0,0.003 -0.002,0.004c-0.002,0.011 -0.005,0.021 -0.008,0.032c-0.202,0.618 -0.188,3.445 -0.186,3.8l-2.765,0l0,3.781l2.937,0l0,10.284l4.277,0l0,-10.284l3.271,0l0.368,-3.781l-0.367,0Z" style="fill:#9090aa;"/><path id="Fill-41" d="M287.318,70.426c-0.139,1.31 -1.198,2.096 -2.448,2.047c-1.281,-0.05 -2.129,-0.737 -2.406,-1.969c-0.332,-1.752 0.057,-3.834 0.089,-4.003c0.335,-1.176 1.189,-1.758 2.442,-1.728c1.231,0.027 2.179,0.757 2.318,2.034c0.13,1.194 0.133,2.424 0.005,3.619Zm0.367,-7.128c-0.052,-0.058 -0.104,-0.114 -0.149,-0.161l0,0c-0.007,-0.008 -0.012,-0.014 -0.02,-0.021c-0.062,-0.065 -0.105,-0.108 -0.105,-0.108c-1.007,-1.026 -1.387,-1.281 -2.176,-1.514c-3.034,-0.895 -5.987,0.696 -6.922,3.753c-0.575,1.879 -0.583,3.813 -0.246,5.716c0.727,4.12 3.786,5.499 7.047,4.819c1,-0.208 1.744,-0.833 2.434,-1.701c0,0 0.062,-0.077 0.138,-0.225l0,1.813l4.172,0l0,-14.164l-4.172,0l0,1.793l-0.001,0Z" style="fill:#9090aa;"/><path id="Fill-5" d="M304.6,74.654c-0.193,-0.709 -0.413,-1.409 -0.627,-2.085l-0.201,-0.751c0,0 -5.229,2.514 -6.044,-2.264c-0.076,-0.789 -0.053,-1.603 0.056,-2.381c0.203,-1.469 1.097,-2.255 2.52,-2.39c0.481,-0.046 0.982,-0.023 1.457,0.058c0.648,0.11 1.281,0.305 1.99,0.48c0.247,-0.755 0.499,-1.503 0.734,-2.255c0.037,-0.118 0.068,-0.22 0.092,-0.311l0,0l0.118,-0.452c-0.029,-0.061 -0.101,-0.123 -0.196,-0.183l0,0c-0.12,-0.101 -0.325,-0.184 -0.645,-0.302c-0.128,-0.047 -0.257,-0.088 -0.385,-0.129c-0.115,-0.036 -0.19,-0.058 -0.19,-0.058l0.001,0c-1.374,-0.393 -2.785,-0.424 -4.217,-0.272c-3.02,0.319 -5.069,2.104 -5.638,5.051c-0.299,1.551 -0.285,3.12 0.058,4.675c0.513,2.329 1.922,3.834 4.213,4.507c1.495,0.439 3.027,0.461 4.551,0.223c0.641,-0.1 1.561,-0.433 2.22,-0.67l0.252,-0.089l-0.119,-0.403l0,0.001Z" style="fill:#9090aa;"/><path id="Fill-6" d="M314.345,67.182l-4.83,0c0.025,-0.963 0.145,-1.857 0.999,-2.402c0.907,-0.577 1.909,-0.599 2.842,-0.082c0.942,0.522 1.016,1.465 0.989,2.484Zm4.021,1.931c-0.02,-0.98 -0.007,-1.966 -0.145,-2.929c-0.382,-2.642 -1.988,-4.314 -4.585,-4.751c-0.991,-0.166 -2.039,-0.144 -3.046,-0.048c-2.756,0.263 -4.849,1.983 -5.277,4.571c-0.261,1.571 -0.294,3.237 -0.083,4.814c0.317,2.372 1.47,3.883 3.465,4.608l0.001,0c0.009,0.001 0.017,0.002 0.026,0.003c-0.001,0.001 0,0.001 -0.001,0.002c0.911,0.273 5.367,1.44 9.295,-0.537l-0.158,-0.58c-0.001,0.001 -0.004,0.001 -0.005,0.001c-0.182,-0.772 -0.401,-1.537 -0.607,-2.303l-0.022,-0.075c0,0 -0.081,0.029 -0.226,0.076c-0.004,0 -0.008,0 -0.011,0.001c-0.171,0.044 -0.341,0.097 -0.509,0.153c-0.032,0.011 -0.062,0.021 -0.094,0.03c-0.594,0.168 -1.444,0.374 -2.342,0.49c-0.753,0.076 -1.514,0.079 -2.283,0.014c-1.247,-0.207 -2.202,-0.876 -2.156,-2.459l0.713,0c2.445,0 4.89,0 7.336,0c0.058,0 0.118,0 0.175,-0.001l0,0.001c0,0 0.525,-0.007 0.547,-0.012c0,0 0,-0.139 0,-0.156l-0.008,-0.913Z" style="fill:#9090aa;"/><path id="Fill-7" d="M379.328,61.653l-4.742,0l-4.119,6.45l0,-14.09l-4.471,0.542l0,21.114l4.471,0l0,-6.461l4.119,6.471l4.742,0l-4.47,-7.025l4.47,-7.001Z" style="fill:#9090aa;"/><path id="Fill-8" d="M360.032,70.217c-0.015,0.094 -0.031,0.185 -0.052,0.277c-0.298,1.322 -1.254,2.035 -2.532,1.977c-1.373,-0.064 -2.315,-0.868 -2.447,-2.242c-0.096,-1.004 -0.105,-2.029 -0.021,-3.034c0.132,-1.586 1.121,-2.454 2.607,-2.424c1.219,0.023 2.09,0.716 2.4,1.892c0.28,1.182 0.073,3.285 0.045,3.554Zm-0.189,-8.655c-1.554,-0.417 -3.123,-0.412 -4.673,0.002c-2.321,0.619 -3.876,2.09 -4.378,4.429c-0.273,1.278 -0.328,2.635 -0.255,3.945c0.164,2.995 2.014,5.129 4.883,5.791c0.041,0.01 0.083,0.017 0.124,0.026l-0.001,0c0,0 0.007,0.002 0.02,0.004c0.11,0.023 0.222,0.043 0.333,0.06c0.037,0.003 0.074,0.007 0.111,0.009c0.001,0.001 0.002,0.001 0.003,0.001c0.141,0.026 0.306,0.045 0.481,0.059c0.563,0.06 1.279,0.102 1.875,0.032c0.002,-0.001 0.005,-0.001 0.009,-0.002c0.031,-0.001 0.061,-0.001 0.09,-0.002c2.964,-0.155 5.213,-2.027 5.869,-4.897c0.36,-1.575 0.36,-3.158 0.013,-4.734c-0.547,-2.473 -2.044,-4.065 -4.504,-4.723Z" style="fill:#9090aa;"/></g><path id="Combined-Shape" d="M359.485,339.394c-8.967,3.879 -20.849,7.345 -34.086,9.651c-29.649,5.164 -54.871,2.544 -56.333,-5.852c-0.791,-4.547 5.552,-9.854 16.245,-14.585c-0.538,0.39 -0.908,0.954 -1.035,1.731c-0.08,0.5 -0.092,0.945 0.025,1.503c0.485,2.271 4.433,2.928 5.005,4.367c0.108,0.269 0.075,0.615 0.024,0.824c-0.093,0.37 -0.343,0.747 -1.082,0.747c-0.697,0 -1.12,-0.4 -1.12,-1.01l0,-1.076l-2.981,0l-0.002,0.861c0,2.478 1.951,3.225 4.041,3.225c2.01,0 3.666,-0.687 3.929,-2.539c0.135,-0.96 0.034,-1.588 -0.012,-1.826c-0.468,-2.326 -4.687,-3.021 -5.001,-4.322c-0.053,-0.223 -0.038,-0.46 -0.012,-0.586c0.077,-0.354 0.32,-0.745 1.016,-0.745c0.649,0 1.033,0.401 1.033,1.008l0,0.687l2.772,0l0,-0.781c0,-2.421 -2.173,-2.799 -3.747,-2.799c-0.546,0 -1.064,0.05 -1.534,0.16c8.894,-3.772 20.538,-7.134 33.475,-9.387c29.65,-5.167 54.867,-2.546 56.327,5.848c0.778,4.459 -5.305,9.65 -15.625,14.312c0.597,-0.436 0.999,-1.083 1.082,-1.994c0.034,-0.371 0.038,-0.525 0.041,-0.732l0,-2.984l-3.941,0l0,1.623l1.141,0l0,1.613c0.001,0.141 -0.005,0.296 -0.025,0.423c-0.052,0.297 -0.333,0.806 -1.139,0.806c-0.804,0 -1.084,-0.508 -1.132,-0.806c-0.023,-0.127 -0.031,-0.282 -0.029,-0.423l0,-5.083c0,-0.179 0.013,-0.377 0.048,-0.524c0.059,-0.276 0.296,-0.81 1.106,-0.81c0.847,0 1.061,0.564 1.108,0.81c0.033,0.158 0.039,0.424 0.037,0.423l0,0.622l2.802,0l0,-0.371c0,0 0.012,-0.377 -0.025,-0.732c-0.204,-2.081 -1.93,-2.746 -3.901,-2.746c-1.973,0 -3.657,0.669 -3.904,2.746c-0.021,0.186 -0.046,0.535 -0.046,0.732l-0.002,4.681c0.003,0.207 0.008,0.361 0.04,0.732c0.188,2.022 1.939,2.743 3.912,2.743c0.526,0 1.036,-0.051 1.505,-0.165Zm-10.958,-2.438l-0.062,0l-2.554,-8.726l-4.128,0l0,10.999l2.734,0l-0.152,-9.027l0.059,0l2.746,9.027l3.956,0l0,-10.999l-2.752,0l0.153,8.726Zm-50.018,-7.696l0.063,0l1.481,10.084l2.989,0l-2.052,-11.114l-4.943,0l-2.061,11.114l3.001,0l1.522,-10.084Zm12.961,7.466l-0.059,0l-1.372,-8.496l-4.535,0l-0.246,11.114l2.784,0l0.069,-9.992l0.061,0l1.859,9.992l2.82,0l1.857,-9.992l0.058,0l0.073,9.992l2.778,0l-0.241,-11.114l-4.532,0l-1.374,8.496Zm13.976,-0.537c0.11,0.267 0.074,0.603 0.025,0.812c-0.091,0.369 -0.339,0.74 -1.074,0.74c-0.687,0 -1.106,-0.4 -1.106,-0.996l-0.003,-1.066l-2.95,0l-0.003,0.849c0,2.453 1.933,3.193 4.002,3.193c1.989,0 3.629,-0.678 3.888,-2.513c0.134,-0.953 0.039,-1.573 -0.01,-1.806c-0.466,-2.305 -4.642,-2.992 -4.953,-4.281c-0.053,-0.222 -0.038,-0.456 -0.01,-0.575c0.079,-0.357 0.317,-0.738 1.006,-0.738c0.643,0 1.019,0.392 1.019,0.994l0,0.679l2.75,0l0,-0.772c0,-2.395 -2.155,-2.771 -3.714,-2.771c-1.954,0 -3.557,0.645 -3.846,2.442c-0.08,0.492 -0.089,0.929 0.026,1.484c0.478,2.247 4.387,2.9 4.953,4.325Zm9.335,1.492c-0.777,0 -1.011,-0.533 -1.071,-0.806c-0.021,-0.119 -0.026,-0.281 -0.026,-0.425l0,-8.225l-2.808,0l0,7.973c-0.006,0.204 0.014,0.625 0.024,0.73c0.194,2.075 1.836,2.748 3.88,2.748c2.042,0 3.682,-0.673 3.88,-2.748c0.009,-0.105 0.029,-0.526 0.023,-0.73l0,-7.973l-2.81,0l0,8.225c0.002,0.144 -0.004,0.304 -0.026,0.425c-0.054,0.273 -0.294,0.806 -1.066,0.806Z" style="fill:#9090aa;fill-rule:nonzero;"/></g></svg>