<?xml version="1.0" encoding="UTF-8"?>
<svg width="960px" height="400px" viewBox="0 0 960 400" version="1.1" xmlns="http://www.w3.org/2000/svg" xmlns:xlink="http://www.w3.org/1999/xlink">
    <!-- Generator: Sketch 42 (36781) - http://www.bohemiancoding.com/sketch -->
    <title>companies</title>
    <desc>Created with Sketch.</desc>
    <defs></defs>
    <g id="Gitignore" stroke="none" stroke-width="1" fill="none" fill-rule="evenodd">
        <g id="companies" fill="#171219">
            <g id="amazon" transform="translate(39.000000, 183.000000)">
                <path d="M60.7528299,23.1791342 C55.0772385,27.3624947 46.8508153,29.5944688 39.7680182,29.5944688 C29.8367938,29.5944688 20.8961436,25.9212769 14.132196,19.8120428 C13.6007744,19.3316342 14.0769263,18.6769239 14.7146355,19.0510434 C22.0142533,23.2981742 31.0399365,25.8532547 40.3632133,25.8532547 C46.6510007,25.8532547 53.5679969,24.5523298 59.9280618,21.8527044 C60.8888742,21.4445698 61.6923845,22.4819082 60.7528299,23.1791342" id="path8"></path>
                <path d="M63.1123477,20.4795088 C62.3896104,19.5527082 58.3167894,20.0416174 56.4886964,20.2584379 C55.9317634,20.3264601 55.8467385,19.8418028 56.3483985,19.4931866 C59.5922029,17.2101963 64.9149326,17.8691601 65.5356342,18.6344082 C66.1563326,19.4039098 65.3740818,24.7393936 62.3258402,27.2859671 C61.8581888,27.6770942 61.4117937,27.468779 61.6201137,26.9501082 C62.3045839,25.2410536 63.8393337,21.4105612 63.1123477,20.4795088" id="path10"></path>
                <path d="M56.6162385,3.37620551 L56.6162385,1.15698551 C56.6162385,0.821126595 56.8713212,0.595803892 57.1774202,0.595803892 L67.1128931,0.595803892 C67.4317494,0.595803892 67.6868321,0.825378486 67.6868321,1.15698551 L67.6868321,3.05735254 C67.6825834,3.37620551 67.4147434,3.79284065 66.9385866,4.45180443 L61.7901666,11.8024417 C63.7032894,11.755679 65.7226948,12.0405185 67.4572575,13.0183369 C67.8483845,13.2394077 67.9546688,13.5625125 67.9844288,13.8813688 L67.9844288,16.2493871 C67.9844288,16.572492 67.6273121,16.9508617 67.253191,16.7553006 C64.1964472,15.1525288 60.1363802,14.9782223 56.7565331,16.7723066 C56.4121721,16.9593671 56.050805,16.5852461 56.050805,16.2621412 L56.050805,14.0131612 C56.050805,13.6517942 56.0550537,13.0353412 56.4164207,12.4869136 L62.3811083,3.93313686 L57.1901742,3.93313686 C56.8713212,3.93313686 56.6162385,3.70781578 56.6162385,3.37620551" id="path12"></path>
                <path d="M20.3732209,17.2229504 L17.3504906,17.2229504 C17.0613992,17.2016958 16.831823,16.9848752 16.8105652,16.7085331 L16.8105652,1.19525092 C16.8105652,0.884900108 17.0698998,0.638317946 17.3930046,0.638317946 L20.2116684,0.638317946 C20.5050165,0.651063892 20.7388398,0.876394703 20.7600992,1.15698551 L20.7600992,3.18489632 L20.8153674,3.18489632 C21.5508555,1.22500768 22.9325517,0.310961189 24.7946582,0.310961189 C26.6865214,0.310961189 27.8684046,1.22500768 28.7186809,3.18489632 C29.4499187,1.22500768 31.1122074,0.310961189 32.8935376,0.310961189 C34.160449,0.310961189 35.5463987,0.833880649 36.392423,2.00726173 C37.3489836,3.31243524 37.1534192,5.20855038 37.1534192,6.87084227 L37.149169,16.6617704 C37.149169,16.9721212 36.8898344,17.2229504 36.5667295,17.2229504 L33.5482479,17.2229504 C33.2464025,17.2016958 33.0040738,16.9593671 33.0040738,16.6617704 L33.0040738,8.43960065 C33.0040738,7.78488876 33.0635906,6.15235849 32.9190457,5.53165524 C32.693723,4.49006984 32.0177533,4.19672173 31.1419674,4.19672173 C30.4107295,4.19672173 29.6454814,4.68563092 29.3351306,5.46788659 C29.0247798,6.25014065 29.0545398,7.55956281 29.0545398,8.43960065 L29.0545398,16.6617704 C29.0545398,16.9721212 28.7952052,17.2229504 28.4721003,17.2229504 L25.453622,17.2229504 C25.1475231,17.2016958 24.9094447,16.9593671 24.9094447,16.6617704 L24.9051944,8.43960065 C24.9051944,6.70928984 25.1900339,4.16271146 23.0430895,4.16271146 C20.8706322,4.16271146 20.9556603,6.64551632 20.9556603,8.43960065 L20.9556603,16.6617704 C20.9556603,16.9721212 20.6963257,17.2229504 20.3732209,17.2229504" id="path14"></path>
                <path d="M76.2406088,0.310961189 C80.7258148,0.310961189 83.1533515,4.16271146 83.1533515,9.06030227 C83.1533515,13.7920871 80.4707288,17.5460552 76.2406088,17.5460552 C71.8361775,17.5460552 69.4383975,13.694305 69.4383975,8.89449795 C69.4383975,4.0649293 71.8659375,0.310961189 76.2406088,0.310961189 M76.2661153,3.47824119 C74.0383948,3.47824119 73.8980969,6.51372389 73.8980969,8.40559038 C73.8980969,10.3017055 73.8683369,14.3490185 76.2406088,14.3490185 C78.5831191,14.3490185 78.6936553,11.0839612 78.6936553,9.09431092 C78.6936553,7.78488876 78.6383872,6.22038065 78.2430066,4.97897578 C77.9028958,3.89912822 77.2269294,3.47824119 76.2661153,3.47824119" id="path16"></path>
                <path d="M88.9692407,17.2229504 L85.9592645,17.2229504 C85.6574142,17.2016958 85.4150856,16.9593671 85.4150856,16.6617704 L85.4108369,1.14423146 C85.436345,0.859388757 85.6871775,0.638317946 85.9932764,0.638317946 L88.7949375,0.638317946 C89.0585207,0.651063892 89.2753412,0.829630378 89.3348629,1.07195903 L89.3348629,3.44422768 L89.3901277,3.44422768 C90.2361553,1.32278984 91.4222872,0.310961189 93.5097148,0.310961189 C94.8659045,0.310961189 96.1880856,0.799870378 97.0383618,2.13905416 C97.829118,3.38045741 97.829118,5.46788659 97.829118,6.96862119 L97.829118,16.7340444 C97.7951077,17.0061298 97.5442753,17.2229504 97.2466818,17.2229504 L94.2154461,17.2229504 C93.9391039,17.2016958 93.7095294,16.9976293 93.6797726,16.7340444 L93.6797726,8.30780822 C93.6797726,6.61150768 93.8753353,4.12869957 91.7879061,4.12869957 C91.0524196,4.12869957 90.3764483,4.62186227 90.0405894,5.37010281 C89.6154537,6.31816281 89.5601856,7.2619693 89.5601856,8.30780822 L89.5601856,16.6617704 C89.5559369,16.9721212 89.2923488,17.2229504 88.9692439,17.2229504" id="path18"></path>
                <path d="M48.6959158,9.81279632 C48.6959158,10.9904277 48.7256758,11.9724963 48.1304823,13.0183369 C47.6500769,13.8686147 46.8848288,14.3915342 46.0388045,14.3915342 C44.8781775,14.3915342 44.1979575,13.5072444 44.1979575,12.2020709 C44.1979575,9.62573578 46.5064558,9.15808443 48.6959158,9.15808443 L48.6959158,9.81279632 M51.7441558,17.1804363 C51.5443429,17.3589947 51.2552466,17.3717488 51.0299239,17.252712 C50.0265975,16.4194417 49.8437888,16.0325666 49.2953612,15.2375585 C47.6373229,16.9296071 46.4596883,17.435519 44.3127423,17.435519 C41.7661656,17.435519 39.7892744,15.8667606 39.7892744,12.7249936 C39.7892744,10.2719455 41.1157072,8.60115308 43.0118223,7.78488876 C44.6528548,7.06215146 46.9443456,6.93461254 48.6959158,6.73479795 L48.6959158,6.34367092 C48.6959158,5.62518551 48.7511839,4.7749093 48.3260466,4.15421092 C47.9604277,3.59727795 47.2546964,3.36770335 46.6297461,3.36770335 C45.4776196,3.36770335 44.4530402,3.95864497 44.2022061,5.18304227 C44.1511899,5.45513254 43.9513769,5.7229693 43.6750348,5.73572335 L40.7458349,5.42111903 C40.4992544,5.36585416 40.2229155,5.16603632 40.2951895,4.78766659 C40.9669072,1.23351308 44.1809515,0.162162811 47.0548818,0.162162811 C48.5258612,0.162162811 50.4474845,0.553289838 51.6081115,1.66715092 C53.0790877,3.04034659 52.9387931,4.87269146 52.9387931,6.86659038 L52.9387931,11.577119 C52.9387931,12.9928304 53.5254829,13.6135288 54.0781623,14.3787801 C54.2694764,14.6508655 54.3119904,14.9782223 54.0654002,15.1822888 C53.4489504,15.6967077 52.3520937,16.6532682 51.748398,17.1889417 L51.7441494,17.1804282" id="path28"></path>
                <path d="M9.06880411,9.81279632 C9.06880411,10.9904277 9.09856086,11.9724963 8.50337043,13.0183369 C8.02296178,13.8686147 7.26196557,14.3915342 6.41168935,14.3915342 C5.25106232,14.3915342 4.57509422,13.5072444 4.57509422,12.2020709 C4.57509422,9.62573578 6.88359259,9.15808443 9.06880411,9.15808443 L9.06880411,9.81279632 M12.1170425,17.1804363 C11.9172279,17.3589947 11.6281317,17.3717488 11.402809,17.252712 C10.3994857,16.4194417 10.2209257,16.0325666 9.66824627,15.2375585 C8.01020773,16.9296071 6.83682989,17.435519 4.68562881,17.435519 C2.14330232,17.435519 0.162162324,15.8667606 0.162162324,12.7249936 C0.162162324,10.2719455 1.49284395,8.60115308 3.38470719,7.78488876 C5.02573962,7.06215146 7.31723368,6.93461254 9.06880411,6.73479795 L9.06880411,6.34367092 C9.06880411,5.62518551 9.12407222,4.7749093 8.70318519,4.15421092 C8.33331259,3.59727795 7.62758611,3.36770335 7.00688286,3.36770335 C5.85476124,3.36770335 4.82592503,3.95864497 4.57509422,5.18304227 C4.52407638,5.45513254 4.32426178,5.7229693 4.05217476,5.73572335 L1.11872286,5.42111903 C0.872142324,5.36585416 0.600053676,5.16603632 0.668075838,4.78766659 C1.34404557,1.23351308 4.55383638,0.162162811 7.42777151,0.162162811 C8.89874627,0.162162811 10.8203695,0.553289838 11.9809965,1.66715092 C13.451976,3.04034659 13.3116782,4.87269146 13.3116782,6.86659038 L13.3116782,11.577119 C13.3116782,12.9928304 13.8983711,13.6135288 14.4510506,14.3787801 C14.6466133,14.6508655 14.6891274,14.9782223 14.4425468,15.1822888 C13.8260971,15.6967077 12.7292419,16.6532682 12.125543,17.1889417 L12.1170425,17.1804282" id="path30"></path>
            </g>
            <g id="intel" transform="translate(295.000000, 179.000000)" fill-rule="nonzero">
                <path d="M57.2521653,10.7846674 C54.5528842,-2.37321165 29.0925258,-3.2064876 12.6806186,6.81808105 L12.6806186,7.92525003 C29.0709735,-0.535071105 52.3280743,-0.481117961 54.4444314,11.6393673 C55.1575582,15.6545997 52.9114879,19.8306095 48.8842166,22.2334415 L48.8842166,25.3779553 C53.7321861,23.5991713 58.6877269,17.8420107 57.2521653,10.7846674 L57.2521653,10.7846674 Z M27.4082189,33.8220626 C16.0819557,34.8703631 4.28053644,33.2203208 2.62836304,24.335057 C1.80786081,19.9598428 3.8052818,15.3161399 6.44000044,12.4350038 L6.44000044,10.892377 C1.68912065,15.0740878 -0.891518313,20.3633597 0.598513888,26.6086558 C2.49874818,34.6230027 12.6266369,39.1594877 28.0885246,37.6489975 C34.2105009,37.0579702 42.2223269,35.0798861 47.7825398,32.0112411 L47.7825398,27.6515521 C42.7295192,30.6775469 34.3722497,33.1775728 27.4082189,33.8220626 Z" id="path6"></path>
                <path d="M47.70634,8.88251019 L43.90634,8.88251019 L43.90634,22.1653608 C43.90634,23.7253979 44.8600377,25.0822389 47.70634,25.2973424" id="path8"></path>
                <path d="M12.3345101,13.7368889 L8.5345101,13.7368889 L8.5345101,22.412543 C8.5345101,23.9731697 9.48814622,25.329519 12.3345101,25.5445245" id="path10"></path>
                <rect id="rect12" x="8.53450991" y="9.28614814" width="3.8" height="3.8"></rect>
                <path d="M29.2974809,25.4048941 C26.8899557,25.4048941 25.8749815,23.7254978 25.8749815,22.0680436 L25.8749815,10.5455725 L28.8118409,10.5455725 L28.8118409,13.7368889 L31.0358673,13.7368889 L31.0358673,16.1264404 L28.8118409,16.1264404 L28.8118409,21.8904308 C28.8118409,22.5683097 29.1357302,22.9400672 29.8372964,22.9400672 L31.0358673,22.9400672 L31.0358673,25.4048941 L29.2974809,25.4048941" id="path14"></path>
                <path d="M37.10396,15.9813 C36.1000568,15.9813 35.3228569,16.5032149 34.9987718,17.2083509 C34.8044958,17.6333416 34.7395412,17.9563895 34.7075057,18.478698 L39.2531362,18.478698 C39.1882796,17.2029389 38.6156431,15.9813 37.10396,15.9813 M34.7075057,20.4913766 C34.7075057,22.0037884 35.6571315,23.1172843 37.3199841,23.1172843 C38.626714,23.1172843 39.2744945,22.7513345 40.0303361,22.0038863 L41.8443562,23.752852 C40.6782145,24.9042343 39.4581893,25.6040553 37.2987257,25.6040553 C34.4808024,25.6040553 31.7812256,24.0594669 31.7812256,19.5600181 C31.7812256,15.7121754 34.1349652,13.5380222 37.2338691,13.5380222 C40.3758775,13.5380222 42.1787288,16.0835378 42.1787288,19.4258002 L42.1787288,20.4914745 L34.7075057,20.4914745" id="path16"></path>
                <path d="M19.5046506,16.1264404 C20.3682605,16.1264404 20.724677,16.5517262 20.724677,17.2459398 L20.724677,25.4209325 L23.6724095,25.4209325 L23.6724095,17.2352142 C23.6724095,15.5721518 22.7869527,13.7367906 20.2065098,13.7367906 L14.1276418,13.7367906 L14.1276418,25.4208345 L17.0645011,25.4208345 L17.0645011,16.1263419" id="path18"></path>
            </g>
            <g id="microsoft" transform="translate(777.000000, 50.000000)" fill-rule="nonzero">
                <path d="M140.327443,13.5527376 L140.327443,11.0848643 L137.262787,11.0848643 L137.262787,7.24815611 L137.159633,7.27988688 L134.28112,8.16054299 L134.224446,8.17785068 L134.224446,11.0848643 L129.681176,11.0848643 L129.681176,9.46557692 C129.681176,8.71150452 129.849842,8.13441176 130.182081,7.74957014 C130.512115,7.36930995 130.984174,7.17604072 131.586041,7.17604072 C132.018903,7.17604072 132.467036,7.27802036 132.917885,7.47909502 L133.030894,7.52949095 L133.030894,4.93045249 L132.977783,4.91093891 C132.557138,4.75975113 131.984796,4.68356335 131.27569,4.68356335 C130.381799,4.68356335 129.569525,4.87802036 128.861267,5.26354072 C128.1525,5.64957014 127.594921,6.20070136 127.20448,6.90149321 C126.815226,7.60143665 126.617715,8.40980769 126.617715,9.30437783 L126.617715,11.0848643 L124.483778,11.0848643 L124.483778,13.5527376 L126.617715,13.5527376 L126.617715,23.9494005 L129.681176,23.9494005 L129.681176,13.5527376 L134.224446,13.5527376 L134.224446,20.1596946 C134.224446,22.8807353 135.50793,24.2597511 138.039095,24.2597511 C138.455158,24.2597511 138.892778,24.2108824 139.339887,24.1153507 C139.794814,24.0174434 140.104656,23.9195362 140.287059,23.8150113 L140.327443,23.7912557 L140.327443,21.3004751 L140.202896,21.3829412 C140.036606,21.493914 139.829593,21.5843552 139.586783,21.6515498 C139.342941,21.7201018 139.139321,21.7545475 138.981692,21.7545475 C138.388643,21.7545475 137.950018,21.5947059 137.67767,21.2794344 C137.402443,20.9612783 137.262801,20.4047172 137.262801,19.6263801 L137.262801,13.5527376 L140.327443,13.5527376 L140.327443,13.5527376 Z M117.64259,21.7547851 C116.530656,21.7547851 115.654072,21.3860633 115.036256,20.659819 C114.414706,19.9298416 114.099774,18.8891742 114.099774,17.5670023 C114.099774,16.2029186 114.414706,15.1352715 115.036595,14.3923982 C115.654751,13.6544457 116.52302,13.2799548 117.617647,13.2799548 C118.679864,13.2799548 119.525396,13.6376471 120.130995,14.3436991 C120.739819,15.0533145 121.048643,16.1124774 121.048643,17.4925113 C121.048643,18.8895136 120.758145,19.9625905 120.185294,20.6803507 C119.616516,21.3928507 118.761143,21.7547851 117.64259,21.7547851 L117.64259,21.7547851 Z M117.779016,10.7749208 C115.657636,10.7749208 113.972681,11.3964706 112.771493,12.6224321 C111.570984,13.8485633 110.962161,15.5452262 110.962161,17.6659276 C110.962161,19.6800679 111.556391,21.3002036 112.728394,22.4805204 C113.900396,23.6613462 115.495419,24.2594796 117.468665,24.2594796 C119.525057,24.2594796 121.176414,23.629276 122.377262,22.3863462 C123.577941,21.1446041 124.186256,19.4640611 124.186256,17.3929072 C124.186256,15.3472059 123.615441,13.7150226 122.489084,12.5425113 C121.362217,11.369491 119.777206,10.7749208 117.779016,10.7749208 L117.779016,10.7749208 Z M106.022935,10.7748529 C104.579948,10.7748529 103.386396,11.143914 102.474519,11.8716855 C101.557211,12.6036991 101.091939,13.5639367 101.091939,14.7257579 C101.091939,15.3296606 101.192392,15.8661991 101.390073,16.3211199 C101.588942,16.7777376 101.896747,17.1795475 102.305514,17.5168778 C102.711396,17.8514932 103.337528,18.2020588 104.167618,18.5585633 C104.865186,18.8456674 105.385605,19.0886538 105.716148,19.2800566 C106.039224,19.4675566 106.268636,19.6562443 106.398105,19.8398416 C106.52384,20.0195362 106.58781,20.2654072 106.58781,20.5691403 C106.58781,21.4333371 105.940638,21.8538122 104.608795,21.8538122 C104.114847,21.8538122 103.551329,21.7508145 102.934021,21.5473643 C102.316374,21.3442534 101.739281,21.0522285 101.219032,20.6777376 L101.091939,20.5866176 L101.091939,23.5358824 L101.138602,23.5576018 C101.572143,23.7576584 102.118523,23.9263235 102.762641,24.0591855 C103.405571,24.1920475 103.98962,24.2597511 104.497143,24.2597511 C106.06298,24.2597511 107.323896,23.8888235 108.243919,23.15681 C109.169881,22.4197059 109.639224,21.4369005 109.639224,20.2346946 C109.639224,19.3676131 109.386566,18.6238914 108.888546,18.0242308 C108.394089,17.4293213 107.535831,16.8832805 106.338546,16.4005317 C105.384756,16.0177262 104.773727,15.6999095 104.521747,15.4560747 C104.278761,15.2203846 104.155401,14.8871267 104.155401,14.4651244 C104.155401,14.0909729 104.307607,13.7913122 104.620333,13.5484955 C104.935435,13.304491 105.373896,13.1804525 105.92401,13.1804525 C106.434417,13.1804525 106.956702,13.261052 107.475933,13.4190271 C107.994994,13.5770023 108.450763,13.7885973 108.831362,14.0475339 L108.956419,14.1330543 L108.956419,11.3353167 L108.908399,11.3146154 C108.557324,11.1641063 108.094428,11.0353167 107.532267,10.9307919 C106.972313,10.8272851 106.464451,10.7748529 106.022935,10.7748529 L106.022935,10.7748529 Z M93.1056271,21.7547851 C91.9940321,21.7547851 91.117109,21.3860633 90.499462,20.659819 C89.8777425,19.9298416 89.5633195,18.8895136 89.5633195,17.5670023 C89.5633195,16.2029186 89.8780819,15.1352715 90.5001407,14.3923982 C91.1177878,13.6544457 91.9858873,13.2799548 93.0810231,13.2799548 C94.1429009,13.2799548 94.9884326,13.6376471 95.5942018,14.3436991 C96.2030253,15.0533145 96.5118489,16.1124774 96.5118489,17.4925113 C96.5118489,18.8895136 96.2211814,19.9625905 95.6483308,20.6803507 C95.0795525,21.3928507 94.2245186,21.7547851 93.1056271,21.7547851 L93.1056271,21.7547851 Z M93.2423919,10.7749208 C91.1205027,10.7749208 89.435548,11.3964706 88.2348692,12.6224321 C87.0343602,13.8485633 86.4251973,15.5452262 86.4251973,17.6659276 C86.4251973,19.6809163 87.0197674,21.3002036 88.1917697,22.4805204 C89.3637719,23.6613462 90.9586249,24.2594796 92.9320412,24.2594796 C94.9879235,24.2594796 96.63979,23.629276 97.8406385,22.3863462 C99.0409778,21.1446041 99.6496317,19.4640611 99.6496317,17.3929072 C99.6496317,15.3472059 99.0786475,13.7150226 97.9521204,12.5425113 C96.8249145,11.369491 95.2402425,10.7749208 93.2423919,10.7749208 L93.2423919,10.7749208 Z M81.7749597,13.3126357 L81.7749597,11.0848643 L78.7488285,11.0848643 L78.7488285,23.9490611 L81.7749597,23.9490611 L81.7749597,17.3685747 C81.7749597,16.2495136 82.0286362,15.3303394 82.5292018,14.6359955 C83.0234891,13.9499661 83.6821995,13.6022851 84.4863285,13.6022851 C84.7588398,13.6022851 85.0647787,13.6472511 85.3961701,13.7361652 C85.7241679,13.8245701 85.9617244,13.9204412 86.1018828,14.0214027 L86.2289756,14.1135407 L86.2289756,11.0628054 L86.1799371,11.0417647 C85.8980932,10.9219683 85.4995072,10.8615611 84.9950389,10.8615611 C84.2346882,10.8615611 83.5540887,11.105905 82.9712267,11.586957 C82.4596317,12.0098077 82.0897222,12.5896154 81.8070299,13.3126357 L81.7749597,13.3126357 L81.7749597,13.3126357 Z M73.3297398,10.7748529 C71.9415611,10.7748529 70.7032127,11.0726471 69.649819,11.6594118 C68.5943891,12.2475339 67.7782127,13.0872964 67.2228394,14.1551131 C66.6700113,15.2203846 66.3893552,16.4646719 66.3893552,17.8521719 C66.3893552,19.0676131 66.6615271,20.1831109 67.1994231,21.166086 C67.7376584,22.1507579 68.4995362,22.9211199 69.4638462,23.4554525 C70.4267986,23.9891063 71.5397511,24.2597511 72.771991,24.2597511 C74.2100566,24.2597511 75.4378846,23.972138 76.4223869,23.4052262 L76.4620928,23.382319 L76.4620928,20.6100339 L76.335,20.7028507 C75.8890724,21.0276244 75.3907127,21.2869005 74.8545136,21.4737217 C74.3196719,21.6603733 73.8320023,21.7547172 73.4045701,21.7547172 C72.2171267,21.7547172 71.2640158,21.3831109 70.5720475,20.6507579 C69.878552,19.9172172 69.5269683,18.8874095 69.5269683,17.5913688 C69.5269683,16.2871833 69.8936538,15.230905 70.6163348,14.4513801 C71.3366403,13.6742308 72.2916176,13.2800566 73.454457,13.2800566 C74.4491403,13.2800566 75.418371,13.6168778 76.3353394,14.2820362 L76.4620928,14.3741742 L76.4620928,11.4530769 L76.4211991,11.43 C76.0760633,11.2369005 75.6055317,11.0773982 75.0211425,10.956414 C74.4394683,10.8357692 73.8705204,10.7748529 73.3297398,10.7748529 L73.3297398,10.7748529 Z M64.3052036,11.0848982 L61.2790724,11.0848982 L61.2790724,23.949095 L64.3052036,23.949095 L64.3052036,11.0848982 Z M62.8230204,5.60463801 C62.325,5.60463801 61.8906109,5.77415158 61.533767,6.11012443 C61.1753959,6.44711538 60.9934955,6.87132353 60.9934955,7.37188914 C60.9934955,7.86464932 61.17319,8.28105204 61.5279977,8.60904977 C61.8805995,8.93602941 62.3163462,9.10180995 62.8230204,9.10180995 C63.3295249,9.10180995 63.7669683,8.93602941 64.1238122,8.60955882 C64.4830317,8.28105204 64.6651018,7.86464932 64.6651018,7.37188914 C64.6651018,6.8888009 64.4879525,6.46883484 64.1385747,6.1236991 C63.7897059,5.77924208 63.3470023,5.60463801 62.8230204,5.60463801 L62.8230204,5.60463801 Z M55.2728104,10.1357919 L55.2728104,23.9490271 L58.3610457,23.9490271 L58.3610457,5.99857466 L54.0868941,5.99857466 L48.6539756,19.3316063 L43.3817471,5.99857466 L38.9335005,5.99857466 L38.9335005,23.9490271 L41.8355932,23.9490271 L41.8355932,10.1344344 L41.935367,10.1344344 L47.5026747,23.9490271 L49.6927765,23.9490271 L55.1732063,10.1357919 L55.2728104,10.1357919 L55.2728104,10.1357919 Z" id="path5056"></path>
                <polygon id="path5058" points="14.2354072 14.2354072 0 14.2354072 0 0 14.2354072 0"></polygon>
                <polygon id="path5060" points="29.9529977 14.2354072 15.7177602 14.2354072 15.7177602 0 29.9529977 0"></polygon>
                <polygon id="path5062" points="14.2350679 29.9585973 0 29.9585973 0 15.72319 14.2350679 15.72319"></polygon>
                <polygon id="path5064" points="29.9529977 29.9585973 15.7177602 29.9585973 15.7177602 15.72319 29.9529977 15.72319"></polygon>
            </g>
            <g id="oracle" transform="translate(504.000000, 188.000000)" fill-rule="nonzero">
                <path d="M64.8773634,12.9552902 L74.7924634,12.9552902 L69.5497122,4.5204878 L59.9274561,19.7709805 L55.5482,19.7709805 L67.2520707,1.4518878 C67.7609463,0.711719512 68.6090293,0.264546341 69.5497122,0.264546341 C70.459439,0.264546341 71.3075366,0.696307317 71.801,1.42104878 L83.551122,19.7709805 L79.1718537,19.7709805 L77.1055366,16.3631366 L67.0669927,16.3631366 L64.8773634,12.9552902 Z M110.366707,16.3631366 L110.366707,0.449587805 L106.650463,0.449587805 L106.650463,17.9205732 C106.650463,18.3985976 106.835537,18.8611951 107.190171,19.2158537 C107.54478,19.5705244 108.022829,19.7709805 108.547122,19.7709805 L125.493854,19.7709805 L127.683488,16.3631366 L110.366707,16.3631366 Z M48.8867146,13.5104171 C52.4950756,13.5104171 55.4248976,10.596022 55.4248976,6.98770976 C55.4248976,3.37940976 52.4950756,0.449587805 48.8867146,0.449587805 L32.6292366,0.449587805 L32.6292366,19.7709805 L36.3440073,19.7709805 L36.3440073,3.85743415 L48.6399829,3.85743415 C50.3671,3.85743415 51.7548829,5.26065366 51.7548829,6.98770976 C51.7548829,8.71476341 50.3671,10.1179976 48.6399829,10.1179976 L38.1636024,10.1025707 L49.2567488,19.7709805 L54.653878,19.7709805 L47.1905488,13.5104171 L48.8867146,13.5104171 Z M9.76131951,19.7709805 C4.4274439,19.7709805 0.0989902439,15.4533512 0.0989902439,10.1179976 C0.0989902439,4.78263171 4.4274439,0.449587805 9.76131951,0.449587805 L20.9917024,0.449587805 C26.3270561,0.449587805 30.6524293,4.78263171 30.6524293,10.1179976 C30.6524293,15.4533512 26.3270561,19.7709805 20.9917024,19.7709805 L9.76131951,19.7709805 Z M20.7418902,16.3631366 C24.1976,16.3631366 26.9963488,13.5720927 26.9963488,10.1179976 C26.9963488,6.6638878 24.1976,3.85743415 20.7418902,3.85743415 L10.0095293,3.85743415 C6.55542195,3.85743415 3.75506829,6.6638878 3.75506829,10.1179976 C3.75506829,13.5720927 6.55542195,16.3631366 10.0095293,16.3631366 L20.7418902,16.3631366 Z M91.3074146,19.7709805 C85.9720488,19.7709805 81.6390488,15.4533512 81.6390488,10.1179976 C81.6390488,4.78263171 85.9720488,0.449587805 91.3074146,0.449587805 L104.645805,0.449587805 L102.471585,3.85743415 L91.5541463,3.85743415 C88.1000244,3.85743415 85.2936341,6.6638878 85.2936341,10.1179976 C85.2936341,13.5720927 88.1000244,16.3631366 91.5541463,16.3631366 L104.954171,16.3631366 L102.764561,19.7709805 L91.3074146,19.7709805 Z M136.750512,16.3631366 C133.897756,16.3631366 131.476805,14.451039 130.73661,11.8142 L146.619366,11.8142 L148.809,8.4063561 L130.73661,8.4063561 C131.476805,5.78494146 133.897756,3.85743415 136.750512,3.85743415 L147.652537,3.85743415 L149.857585,0.449587805 L136.50378,0.449587805 C131.168415,0.449587805 126.835415,4.78263171 126.835415,10.1179976 C126.835415,15.4533512 131.168415,19.7709805 136.50378,19.7709805 L147.960927,19.7709805 L150.150537,16.3631366 L136.750512,16.3631366 L136.750512,16.3631366 Z" id="path16197"></path>
                <path d="M151.846829,2.50046341 C151.846829,1.55982683 152.602317,0.804246341 153.543,0.804246341 C154.499098,0.804246341 155.254585,1.55982683 155.254585,2.50046341 C155.254585,3.45649756 154.499098,4.21209268 153.543,4.21209268 C152.602317,4.21209268 151.846829,3.45649756 151.846829,2.50046341 Z M153.543,4.69011463 C154.745707,4.69011463 155.71722,3.71864146 155.71722,2.51587561 C155.71722,1.31310976 154.745707,0.34164878 153.543,0.34164878 C152.355585,0.34164878 151.384195,1.31310976 151.384195,2.51587561 C151.384195,3.71864146 152.355585,4.69011463 153.543,4.69011463 Z M153.342512,1.22059512 C153.681732,1.22059512 153.820561,1.23600732 153.974805,1.29768293 C154.406512,1.43647561 154.452732,1.82197073 154.452732,1.97617561 C154.452732,2.00701463 154.452732,2.08411463 154.421902,2.17662927 C154.406512,2.26915854 154.344854,2.4542 154.128951,2.59297805 C154.098122,2.60840244 154.082707,2.62381707 154.021049,2.65465366 L154.576171,3.65696585 L154.036463,3.65696585 L153.543,2.7317561 L153.203805,2.7317561 L153.203805,3.65696585 L152.725756,3.65696585 L152.725756,1.22059512 L153.342512,1.22059512 Z M153.550408,2.49121024 C153.723669,2.47231336 153.897039,2.47231336 154.000996,2.30213975 C154.052947,2.22651933 154.07041,2.15089891 154.07041,2.03744883 C154.07041,1.88620799 153.98367,1.75386104 153.862387,1.67822566 C153.740995,1.62151707 153.619713,1.62151707 153.359712,1.62151707 L153.203805,1.62151707 L153.203805,2.49121024 L153.550408,2.49121024 L153.550408,2.49121024 Z" id="path16199"></path>
            </g>
            <g id="tesla" transform="translate(773.000000, 324.000000)" fill-rule="nonzero">
                <path d="M102.400243,19.3602829 L98.631138,19.3505036 L98.631138,0.019241184 L115.91619,0.019241184 C117.806857,0.821145075 118.819453,2.20736308 119.210794,3.82583984 L102.390459,3.82583984 L102.400243,19.3602829 Z M130.60616,15.4974532 L145.024638,15.4974532 C147.027816,15.8935155 148.519804,17.6611268 148.93805,19.3700622 L126.690303,19.3700622 C127.106103,17.6611268 128.620104,15.8935155 130.60616,15.4974532 L130.60616,15.4974532 Z M83.9118169,15.5512394 C85.9149947,16.1331087 87.6026537,17.6611268 88.0135619,19.3553932 L66.856678,19.3553932 L66.856678,7.93315245 L84.1735264,7.93315245 L84.1735264,3.923633 L70.5915406,3.91140885 C68.4611769,3.31976025 66.6610074,1.89198015 65.7584767,0.00457221037 L66.856678,0.0241308419 L87.8961596,0.0241308419 L87.8961596,11.7299718 L70.5915406,11.7299718 L70.5915406,15.5512394 L83.9118169,15.5512394 L83.9118169,15.5512394 Z M127.272423,0.0241308419 L131.02196,0.0241308419 L131.02196,7.80602135 L144.672431,7.80602135 L144.672431,0.0241308419 L148.419523,0.0241308419 L148.419523,11.6957442 L127.272423,11.7153028 L127.272423,0.0241308419 Z M37.7164334,15.5096773 L52.1324651,15.5096773 C54.1380888,15.9081844 55.6276313,17.6757958 56.0458772,19.3847312 L33.8005755,19.3847312 C34.2163755,17.6757958 35.7279309,15.9081844 37.7164334,15.5096773 L37.7164334,15.5096773 Z M0.211270596,19.3407243 C0.644191806,17.6489027 2.10927545,15.9252983 4.11734501,15.4901187 L10.1855796,15.4901187 L10.4937608,15.3678773 L10.4937608,0.0632481049 L14.2848787,0.0632481049 L14.2848787,15.3678773 L14.6273023,15.4901187 L20.7028745,15.4901187 C22.7305111,16.0133121 24.1637983,17.6489027 24.5918277,19.3407243 L24.5918277,19.3773967 L0.211270596,19.3773967 L0.211270596,19.3407243 Z M37.7164334,0.0216860129 L52.1324651,0.0216860129 C54.1380888,0.422637959 55.6276313,2.18535962 56.0458772,3.89673988 L33.8005755,3.89673988 C34.2163755,2.18535962 35.7279309,0.422637959 37.7164334,0.0216860129 L37.7164334,0.0216860129 Z M37.7164334,7.8695869 L52.1324651,7.8695869 C54.1380888,8.26564919 55.6276313,10.0332605 56.0458772,11.7421959 L33.8005755,11.7421959 C34.2163755,10.0332605 35.7279309,8.26564919 37.7164334,7.8695869 L37.7164334,7.8695869 Z" id="path10484" transform="translate(74.574660, 9.694652) scale(-1, 1) rotate(-180.000000) translate(-74.574660, -9.694652) "></path>
            </g>
            <g id="twitter" transform="translate(64.000000, 46.000000)" fill-rule="nonzero">
                <path d="M14.6417428,37.5531663 C31.9975967,37.5531663 41.4888382,23.1746299 41.4888382,10.7060708 C41.4888382,10.2976696 41.4805199,9.8911204 41.462201,9.48640769 C43.3045822,8.15451643 44.9059012,6.49242257 46.1689308,4.60034743 C44.4782552,5.3518377 42.6588691,5.85772859 40.7502808,6.08584247 C42.6983774,4.91767899 44.193981,3.06978829 44.8995738,0.866894282 C43.0764837,1.94767661 41.0575501,2.73319645 38.9078996,3.1572929 C37.1860495,1.32324552 34.7346856,0.176117096 32.0203449,0.176117096 C26.8095761,0.176117096 22.5840445,4.40180301 22.5840445,9.61056548 C22.5840445,10.3510058 22.6668267,11.071229 22.8287179,11.7620679 C14.9864832,11.3674637 8.03256691,7.61277489 3.37861767,1.90352305 C2.56826627,3.29794847 2.10100396,4.91772529 2.10100396,6.64605722 C2.10100396,9.91968672 3.76683259,12.809654 6.29999093,14.5003296 C4.75191543,14.4525 3.29767204,14.0275423 2.02661732,13.3202056 C2.02522836,13.3597942 2.02522836,13.3983903 2.02522836,13.4407012 C2.02522836,18.0103867 5.27771478,21.8257115 9.59522652,22.6902633 C8.80234518,22.9064167 7.9681345,23.0223178 7.10713228,23.0223178 C6.50006322,23.0223178 5.90861226,22.9625678 5.33373625,22.8521545 C6.53500333,26.6012721 10.018397,29.3295025 14.1482445,29.405741 C10.9187531,31.9370474 6.85048294,33.4446887 2.42895336,33.4446887 C1.66826508,33.4446887 0.916790248,33.401421 0.17821733,33.3140738 C4.35420926,35.9907582 9.31280421,37.552569 14.6422521,37.552569" id="Shape"></path>
            </g>
            <g id="airbnb" transform="translate(789.000000, 180.000000)" fill-rule="nonzero">
                <path d="M61.092,9.036 C61.092,10.332 60.048,11.376 58.752,11.376 C57.456,11.376 56.412,10.332 56.412,9.036 C56.412,7.74 57.42,6.696 58.752,6.696 C60.084,6.732 61.092,7.776 61.092,9.036 Z M51.444,13.752 L51.444,14.328 C51.444,14.328 50.328,12.888 47.952,12.888 C44.028,12.888 40.968,15.876 40.968,20.016 C40.968,24.12 43.992,27.144 47.952,27.144 C50.364,27.144 51.444,25.668 51.444,25.668 L51.444,26.28 C51.444,26.568 51.66,26.784 51.948,26.784 L54.864,26.784 L54.864,13.248 L51.948,13.248 C51.66,13.248 51.444,13.5 51.444,13.752 Z M51.444,22.428 C50.904,23.22 49.824,23.904 48.528,23.904 C46.224,23.904 44.46,22.464 44.46,20.016 C44.46,17.568 46.224,16.128 48.528,16.128 C49.788,16.128 50.94,16.848 51.444,17.604 L51.444,22.428 Z M57.024,13.248 L60.624,13.248 L60.624,26.784 L57.024,26.784 L57.024,13.248 Z M108.648,12.888 C106.272,12.888 105.156,14.328 105.156,14.328 L105.156,6.732 L101.7,6.732 L101.7,26.784 L104.616,26.784 C104.904,26.784 105.12,26.532 105.12,26.28 L105.12,25.668 L105.12,25.668 C105.12,25.668 106.236,27.144 108.612,27.144 C112.536,27.144 115.596,24.12 115.596,20.016 C115.596,15.912 112.536,12.888 108.648,12.888 Z M108.072,23.868 C106.74,23.868 105.696,23.184 105.156,22.392 L105.156,17.568 C105.696,16.848 106.848,16.092 108.072,16.092 C110.376,16.092 112.14,17.532 112.14,19.98 C112.14,22.428 110.376,23.868 108.072,23.868 Z M99.9,18.756 L99.9,26.82 L96.444,26.82 L96.444,19.152 C96.444,16.92 95.724,16.02 93.78,16.02 C92.736,16.02 91.656,16.56 90.972,17.352 L90.972,26.784 L87.516,26.784 L87.516,13.248 L90.252,13.248 C90.54,13.248 90.756,13.5 90.756,13.752 L90.756,14.328 C91.764,13.284 93.096,12.888 94.428,12.888 C95.94,12.888 97.2,13.32 98.208,14.184 C99.432,15.192 99.9,16.488 99.9,18.756 Z M79.128,12.888 C76.752,12.888 75.636,14.328 75.636,14.328 L75.636,6.732 L72.18,6.732 L72.18,26.784 L75.096,26.784 C75.384,26.784 75.6,26.532 75.6,26.28 L75.6,25.668 L75.6,25.668 C75.6,25.668 76.716,27.144 79.092,27.144 C83.016,27.144 86.076,24.12 86.076,20.016 C86.112,15.912 83.052,12.888 79.128,12.888 Z M78.552,23.868 C77.22,23.868 76.176,23.184 75.636,22.392 L75.636,17.568 C76.176,16.848 77.328,16.092 78.552,16.092 C80.856,16.092 82.62,17.532 82.62,19.98 C82.62,22.428 80.856,23.868 78.552,23.868 Z M69.192,12.888 C70.236,12.888 70.776,13.068 70.776,13.068 L70.776,16.272 C70.776,16.272 67.896,15.3 66.096,17.352 L66.096,26.82 L62.64,26.82 L62.64,13.248 L65.556,13.248 C65.844,13.248 66.06,13.5 66.06,13.752 L66.06,14.328 C66.708,13.572 68.112,12.888 69.192,12.888 Z M33.3,25.56 C33.12,25.128 32.94,24.66 32.76,24.264 C32.472,23.616 32.184,23.004 31.932,22.428 L31.896,22.392 C29.412,16.992 26.748,11.52 23.94,6.12 L23.832,5.904 C23.544,5.364 23.256,4.788 22.968,4.212 C22.608,3.564 22.248,2.88 21.672,2.232 C20.52,0.792 18.864,0 17.1,0 C15.3,0 13.68,0.792 12.492,2.16 C11.952,2.808 11.556,3.492 11.196,4.14 C10.908,4.716 10.62,5.292 10.332,5.832 L10.224,6.048 C7.452,11.448 4.752,16.92 2.268,22.32 L2.232,22.392 C1.98,22.968 1.692,23.58 1.404,24.228 C1.224,24.624 1.044,25.056 0.864,25.524 C0.396,26.856 0.252,28.116 0.432,29.412 C0.828,32.112 2.628,34.38 5.112,35.388 C6.048,35.784 7.02,35.964 8.028,35.964 C8.316,35.964 8.676,35.928 8.964,35.892 C10.152,35.748 11.376,35.352 12.564,34.668 C14.04,33.84 15.444,32.652 17.028,30.924 C18.612,32.652 20.052,33.84 21.492,34.668 C22.68,35.352 23.904,35.748 25.092,35.892 C25.38,35.928 25.74,35.964 26.028,35.964 C27.036,35.964 28.044,35.784 28.944,35.388 C31.464,34.38 33.228,32.076 33.624,29.412 C33.912,28.152 33.768,26.892 33.3,25.56 Z M17.064,27.432 C15.12,24.984 13.86,22.68 13.428,20.736 C13.248,19.908 13.212,19.188 13.32,18.54 C13.392,17.964 13.608,17.46 13.896,17.028 C14.58,16.056 15.732,15.444 17.064,15.444 C18.396,15.444 19.584,16.02 20.232,17.028 C20.52,17.46 20.736,17.964 20.808,18.54 C20.916,19.188 20.88,19.944 20.7,20.736 C20.268,22.644 19.008,24.948 17.064,27.432 Z M31.428,29.124 C31.176,30.996 29.916,32.616 28.152,33.336 C27.288,33.696 26.352,33.804 25.416,33.696 C24.516,33.588 23.616,33.3 22.68,32.76 C21.384,32.04 20.088,30.924 18.576,29.268 C20.952,26.352 22.392,23.688 22.932,21.312 C23.184,20.196 23.22,19.188 23.112,18.252 C22.968,17.352 22.644,16.524 22.14,15.804 C21.024,14.184 19.152,13.248 17.064,13.248 C14.976,13.248 13.104,14.22 11.988,15.804 C11.484,16.524 11.16,17.352 11.016,18.252 C10.872,19.188 10.908,20.232 11.196,21.312 C11.736,23.688 13.212,26.388 15.552,29.304 C14.076,30.96 12.744,32.076 11.448,32.796 C10.512,33.336 9.612,33.624 8.712,33.732 C7.74,33.84 6.804,33.696 5.976,33.372 C4.212,32.652 2.952,31.032 2.7,29.16 C2.592,28.26 2.664,27.36 3.024,26.352 C3.132,25.992 3.312,25.632 3.492,25.2 C3.744,24.624 4.032,24.012 4.32,23.4 L4.356,23.328 C6.84,17.964 9.504,12.492 12.276,7.164 L12.384,6.948 C12.672,6.408 12.96,5.832 13.248,5.292 C13.536,4.716 13.86,4.176 14.256,3.708 C15.012,2.844 16.02,2.376 17.136,2.376 C18.252,2.376 19.26,2.844 20.016,3.708 C20.412,4.176 20.736,4.716 21.024,5.292 C21.312,5.832 21.6,6.408 21.888,6.948 L21.996,7.164 C24.732,12.528 27.396,18 29.88,23.364 L29.88,23.4 C30.168,23.976 30.42,24.624 30.708,25.2 C30.888,25.632 31.068,25.992 31.176,26.352 C31.464,27.288 31.572,28.188 31.428,29.124 Z" id="Shape"></path>
            </g>
            <g id="apple" transform="translate(566.000000, 315.000000)" fill-rule="nonzero">
                <path d="M31.1345122,29.4847561 C30.5668293,30.7962195 29.894878,32.0034146 29.1163415,33.1132927 C28.055122,34.6263415 27.1862195,35.6736585 26.5165854,36.2552439 C25.4785366,37.209878 24.3663415,37.6987805 23.1753659,37.7265854 C22.3203659,37.7265854 21.2892683,37.4832927 20.0890244,36.9897561 C18.8848415,36.4985366 17.7782073,36.2552439 16.7663415,36.2552439 C15.705122,36.2552439 14.5669756,36.4985366 13.3495854,36.9897561 C12.1303415,37.4832927 11.1481341,37.7404878 10.3971707,37.7659756 C9.25508537,37.8146341 8.11670732,37.3118293 6.98041463,36.2552439 C6.25517073,35.6226829 5.34803659,34.5382927 4.26132927,33.0020732 C3.09537805,31.3615854 2.13680488,29.4592683 1.38584146,27.2904878 C0.581585366,24.9479268 0.178414634,22.6795122 0.178414634,20.4833902 C0.178414634,17.9677439 0.722,15.7980366 1.81079268,13.9798293 C2.6664878,12.519378 3.80486585,11.3673293 5.22963415,10.5215976 C6.65440244,9.67586585 8.19386585,9.24489024 9.85173171,9.21731707 C10.7588659,9.21731707 11.9484512,9.49791463 13.4267439,10.049378 C14.9008659,10.6026951 15.8473902,10.8832927 16.262378,10.8832927 C16.5726341,10.8832927 17.624122,10.5551951 19.4066463,9.90108537 C21.0923171,9.29447561 22.515,9.04330488 23.6804878,9.1422439 C26.8386585,9.39712195 29.2113415,10.6420854 30.7892683,12.8850122 C27.9647561,14.5964024 26.567561,16.9934146 26.5953659,20.0684024 C26.6208537,22.463561 27.4897561,24.4567073 29.197439,26.0392683 C29.9713415,26.7737805 30.8356098,27.3414634 31.7971951,27.7446341 C31.5886585,28.3493902 31.3685366,28.9286585 31.1345122,29.4847561 L31.1345122,29.4847561 Z M23.8913415,0.982439024 C23.8913415,2.85975488 23.2054878,4.61259756 21.8384146,6.2350122 C20.1886585,8.1637439 18.1931951,9.2782561 16.0292805,9.10239024 C16.0017073,8.87717073 15.9857195,8.64013415 15.9857195,8.39104878 C15.9857195,6.58882927 16.7702805,4.66009756 18.1635366,3.08309756 C18.859122,2.28463415 19.7437805,1.62072317 20.8165854,1.09110976 C21.8870732,0.569397561 22.8996341,0.28087561 23.8519512,0.23147561 C23.8797561,0.482437805 23.8913415,0.733423171 23.8913415,0.982415854 L23.8913415,0.982439024 Z" id="Shape"></path>
            </g>
            <g id="google" transform="translate(537.000000, 50.000000)" fill-rule="nonzero">
                <path d="M38.5833333,15.7266667 C38.5833333,19.9833333 35.2533333,23.12 31.1666667,23.12 C27.08,23.12 23.75,19.9833333 23.75,15.7266667 C23.75,11.44 27.08,8.33333333 31.1666667,8.33333333 C35.2533333,8.33333333 38.5833333,11.44 38.5833333,15.7266667 Z M35.3366667,15.7266667 C35.3366667,13.0666667 33.4066667,11.2466667 31.1666667,11.2466667 C28.9266667,11.2466667 26.9966667,13.0666667 26.9966667,15.7266667 C26.9966667,18.36 28.9266667,20.2066667 31.1666667,20.2066667 C33.4066667,20.2066667 35.3366667,18.3566667 35.3366667,15.7266667 Z" id="Shape"></path>
                <path d="M54.5833333,15.7266667 C54.5833333,19.9833333 51.2533333,23.12 47.1666667,23.12 C43.08,23.12 39.75,19.9833333 39.75,15.7266667 C39.75,11.4433333 43.08,8.33333333 47.1666667,8.33333333 C51.2533333,8.33333333 54.5833333,11.44 54.5833333,15.7266667 Z M51.3366667,15.7266667 C51.3366667,13.0666667 49.4066667,11.2466667 47.1666667,11.2466667 C44.9266667,11.2466667 42.9966667,13.0666667 42.9966667,15.7266667 C42.9966667,18.36 44.9266667,20.2066667 47.1666667,20.2066667 C49.4066667,20.2066667 51.3366667,18.3566667 51.3366667,15.7266667 Z" id="Shape"></path>
                <path d="M69.9166667,8.78 L69.9166667,22.0533333 C69.9166667,27.5133333 66.6966667,29.7433333 62.89,29.7433333 C59.3066667,29.7433333 57.15,27.3466667 56.3366667,25.3866667 L59.1633333,24.21 C59.6666667,25.4133333 60.9,26.8333333 62.8866667,26.8333333 C65.3233333,26.8333333 66.8333333,25.33 66.8333333,22.5 L66.8333333,21.4366667 L66.72,21.4366667 C65.9933333,22.3333333 64.5933333,23.1166667 62.8266667,23.1166667 C59.13,23.1166667 55.7433333,19.8966667 55.7433333,15.7533333 C55.7433333,11.58 59.13,8.33333333 62.8266667,8.33333333 C64.59,8.33333333 65.99,9.11666667 66.72,9.98666667 L66.8333333,9.98666667 L66.8333333,8.78333333 L69.9166667,8.78333333 L69.9166667,8.78 Z M67.0633333,15.7533333 C67.0633333,13.15 65.3266667,11.2466667 63.1166667,11.2466667 C60.8766667,11.2466667 59,13.15 59,15.7533333 C59,18.33 60.8766667,20.2066667 63.1166667,20.2066667 C65.3266667,20.2066667 67.0633333,18.33 67.0633333,15.7533333 Z" id="Shape"></path>
                <polygon id="Shape" points="75 1 75 22.6666667 71.8333333 22.6666667 71.8333333 1"></polygon>
                <path d="M87.34,18.16 L89.86,19.84 C89.0466667,21.0433333 87.0866667,23.1166667 83.7,23.1166667 C79.5,23.1166667 76.3633333,19.87 76.3633333,15.7233333 C76.3633333,11.3266667 79.5266667,8.33 83.3366667,8.33 C87.1733333,8.33 89.05,11.3833333 89.6633333,13.0333333 L90,13.8733333 L80.1166667,17.9666667 C80.8733333,19.45 82.05,20.2066667 83.7,20.2066667 C85.3533333,20.2066667 86.5,19.3933333 87.34,18.16 Z M79.5833333,15.5 L86.19,12.7566667 C85.8266667,11.8333333 84.7333333,11.19 83.4466667,11.19 C81.7966667,11.19 79.5,12.6466667 79.5833333,15.5 L79.5833333,15.5 Z" id="Shape"></path>
                <path d="M11.7633333,13.8033333 L11.7633333,10.6666667 L22.3333333,10.6666667 C22.4366667,11.2133333 22.49,11.86 22.49,12.56 C22.49,14.9133333 21.8466667,17.8233333 19.7733333,19.8966667 C17.7566667,21.9966667 15.18,23.1166667 11.7666667,23.1166667 C5.44,23.1166667 0.12,17.9633333 0.12,11.6366667 C0.12,5.31 5.44,0.156666667 11.7666667,0.156666667 C15.2666667,0.156666667 17.76,1.53 19.6333333,3.32 L17.42,5.53333333 C16.0766667,4.27333333 14.2566667,3.29333333 11.7633333,3.29333333 C7.14333333,3.29333333 3.53,7.01666667 3.53,11.6366667 C3.53,16.2566667 7.14333333,19.98 11.7633333,19.98 C14.76,19.98 16.4666667,18.7766667 17.56,17.6833333 C18.4466667,16.7966667 19.03,15.53 19.26,13.8 L11.7633333,13.8033333 L11.7633333,13.8033333 Z" id="Shape"></path>
            </g>
            <g id="uber" transform="translate(35.000000, 323.000000)" fill-rule="nonzero">
                <path d="M16.5540984,0.53052459 L16.5540984,12.6420656 C16.5540984,16.686459 14.7638033,18.3660328 10.5646885,18.3660328 C6.36521311,18.3660328 4.57491803,16.686459 4.57491803,12.6420656 L4.57491803,0 L0.53052459,0 C0.177081967,0 0,0.177081967 0,0.53052459 L0,12.8407869 C0,19.6041639 4.30983607,21.9689836 10.5646885,21.9689836 C16.8191803,21.9689836 21.1290164,19.6041639 21.1290164,12.8407869 L21.1290164,0 L17.0842623,0 C16.7308197,0 16.5540984,0.177081967 16.5540984,0.53052459" id="Fill-1"></path>
                <path d="M75.185541,3.51422951 C75.5169836,3.51422951 75.6717049,3.40386885 75.7820656,3.16042623 L76.9538361,0.265081967 C77.0201967,0.0887213115 76.9538361,0 76.7767541,0 L60.4880984,0 C58.9628852,0 58.3887213,0.464163934 58.3887213,1.50285246 L58.3887213,20.3110492 C58.3887213,21.195377 58.8301639,21.5931803 60.0019344,21.5931803 L75.185541,21.5931803 C75.5169836,21.5931803 75.6717049,21.482459 75.7820656,21.2397377 L76.9538361,18.3440328 C77.0201967,18.1673115 76.9538361,18.0789508 76.7767541,18.0789508 L62.8752787,18.0789508 L62.8752787,14.2552787 C62.8752787,12.9291475 63.6045246,12.3322623 65.5711803,12.3322623 L71.6053115,12.3322623 C71.9367541,12.3322623 72.0911148,12.2222623 72.2018361,11.9791803 L73.3292459,9.19419672 C73.3952459,9.01711475 73.3292459,8.92911475 73.1521639,8.92911475 L62.8752787,8.92911475 L62.8752787,3.51422951 L75.185541,3.51422951" id="Fill-2"></path>
                <path d="M42.2674098,18.1233115 L34.286459,18.1233115 L34.286459,14.166918 C34.286459,12.8407869 35.0157049,12.2442623 36.983082,12.2442623 L42.2674098,12.2442623 C44.8089508,12.2442623 45.5161967,13.2165902 45.5161967,15.2059672 C45.5161967,17.1949836 44.8089508,18.1233115 42.2674098,18.1233115 Z M34.286459,3.46986885 L41.4274426,3.46986885 C43.8142623,3.46986885 44.4775082,4.36898361 44.4775082,6.2324918 C44.4775082,8.09636066 43.8142623,8.99547541 41.4274426,8.99547541 L34.286459,8.99547541 L34.286459,3.46986885 Z M46.5108852,10.2108852 C48.2788197,9.28255738 49.0080656,7.53662295 49.0080656,5.4812459 C49.0080656,0.707245902 45.1183934,0 41.096,0 L31.9018033,0 C30.3765902,0 29.8024262,0.464163934 29.8024262,1.50285246 L29.8024262,20.3110492 C29.8024262,21.195377 30.2442295,21.5931803 31.4156393,21.5931803 L42.7315738,21.5931803 C46.9970492,21.5931803 50.0467541,19.9356066 50.0467541,15.6257705 C50.0467541,13.0398689 48.9417049,10.8517705 46.5108852,10.2108852 L46.5108852,10.2108852 Z" id="Fill-3"></path>
                <path d="M96.744459,10.0118033 L89.2298361,10.0118033 L89.2298361,3.47022951 L96.744459,3.47022951 C99.551082,3.47022951 100.169967,4.55291803 100.169967,6.74101639 C100.169967,8.95111475 99.551082,10.0118033 96.744459,10.0118033 Z M105.187049,21.217377 L100.347049,12.9071475 C102.755869,12.288623 104.700885,10.6974098 104.700885,6.65265574 C104.700885,1.41485246 101.451738,0 96.0812131,0 L86.8430164,0 C85.3181639,0 84.7432787,0.464163934 84.7432787,1.50285246 L84.7432787,21.0626557 C84.7432787,21.4160984 84.9203607,21.5931803 85.2738033,21.5931803 L89.2298361,21.5931803 L89.2298361,15.2943279 C89.2298361,13.9681967 89.959082,13.3713115 91.926459,13.3713115 L95.9044918,13.3713115 L100.280328,21.2397377 C100.413049,21.460459 100.54577,21.5931803 100.877213,21.5931803 L104.988328,21.5931803 C105.27577,21.5931803 105.27577,21.3497377 105.187049,21.217377 L105.187049,21.217377 Z" id="Fill-4"></path>
            </g>
            <g id="facebook" transform="translate(267.000000, 54.000000)">
                <path d="M62.4200635,16.4466824 C62.2231849,17.8386353 61.1170995,18.5682588 59.804059,18.4657647 C59.4756697,18.4401412 59.17906,18.3725882 58.9124213,18.2682824 C57.8538761,17.6595294 57.534013,16.6405412 57.4409995,16.0004706 C57.439966,16.0009882 57.4389325,16.0009882 57.4389325,16.0015059 C57.3665887,15.0112471 57.2885607,12.9406588 57.7706807,11.9620471 C58.1801984,11.2119765 58.8943353,10.8035529 59.8420395,10.7722353 C61.1878931,10.7279765 62.2063908,11.3967765 62.4066282,12.7651765 C62.5843873,13.9710353 62.5926552,15.2416 62.4200635,16.4466824 Z M61.7519165,7.30270588 C60.0637216,7.12204706 58.6031514,7.63451765 57.3686557,9.12171765 L57.3686557,0 L52.8980655,0.542235294 L52.8980655,21.6555059 L57.3686557,21.6555059 L57.3686557,20.4022824 C57.9716932,20.8332235 58.5581949,21.3524235 59.2441694,21.5983059 C61.8488056,22.5334353 65.2835872,21.7712 66.4852699,18.2809647 C67.2567651,16.0421412 67.2366122,13.7466353 66.6555362,11.4827059 C66.0116762,8.96745882 64.3407921,7.57887059 61.7519165,7.30270588 Z" id="Fill-1"></path>
                <path d="M77.7846007,16.2196941 C77.7696152,16.3128706 77.7541129,16.4050118 77.7331849,16.4963765 C77.4363168,17.8176706 76.4785362,18.5325412 75.2014093,18.4730118 C73.8281684,18.4101176 72.8861484,17.6062118 72.7538626,16.2316 C72.6582654,15.2273647 72.6505142,14.2019059 72.7337096,13.1971529 C72.8641869,11.6110824 73.8542639,10.7437647 75.3393793,10.7732706 C76.5601814,10.7968235 77.4295992,11.4896941 77.7399025,12.6652706 C78.0212684,13.8480941 77.8122464,15.9505176 77.7846007,16.2196941 Z M77.5954733,7.5636 C76.0421479,7.14715294 74.473062,7.15232941 72.9230955,7.56592941 C70.6018921,8.18503529 69.0464998,9.65618824 68.5452604,11.9964706 C68.2713873,13.2735059 68.2171294,14.6310353 68.2894733,15.9404235 C68.4548306,18.9355294 70.3034738,21.0690118 73.1731984,21.7316 C73.2135042,21.7414353 73.2556187,21.7484235 73.2966997,21.7577412 L73.2956662,21.7577412 C73.2956662,21.7577412 73.3036757,21.7592941 73.3165942,21.7618824 C73.4269185,21.7841412 73.5375012,21.8045882 73.6483423,21.8216706 C73.6852894,21.8247765 73.7232699,21.8278824 73.7597001,21.8312471 L73.7628006,21.8312471 C73.9020625,21.8571294 74.06897,21.8760235 74.2446622,21.89 C74.8063603,21.9497882 75.5212724,21.9922353 76.1181089,21.9218353 C76.1222429,21.9218353 76.1243098,21.9208 76.1274103,21.9202824 C76.1576397,21.9197647 76.1883858,21.9197647 76.2186152,21.9176941 C79.1818701,21.7634353 81.4302129,19.8918824 82.0864748,17.0207529 C82.4466437,15.4460706 82.4466437,13.8633647 82.0983598,12.2876471 C81.5534558,9.81432941 80.0559385,8.22308235 77.5954733,7.5636 Z" id="Fill-2"></path>
                <path d="M10.4857211,7.48931765 L7.29484158,7.48931765 L7.29484158,5.3636 C7.52815042,3.35409412 10.8414978,3.73585882 10.8414978,3.73585882 L10.8425312,3.59868235 L10.8414978,3.58315294 L10.8414978,0.282376471 L10.840981,0.282376471 L10.840981,0.281858824 L10.8383973,0.281858824 C10.7244558,0.254682353 4.24761619,-1.28505882 2.96092954,3.65303529 C2.96092954,3.65407059 2.96092954,3.65562353 2.95937931,3.65665882 C2.95705397,3.66752941 2.95395352,3.6784 2.95136982,3.68901176 C2.74906547,4.30656471 2.76275912,7.13395294 2.76534283,7.48931765 L0,7.48931765 L0,11.2702118 L2.93690105,11.2702118 L2.93690105,21.5540471 L7.21371314,21.5540471 L7.21371314,11.2702118 L10.4852044,11.2702118 L10.8533828,7.48931765 L10.4857211,7.48931765 Z" id="Fill-3"></path>
                <path d="M20.3182809,16.4259765 C20.1785022,17.7358824 19.1204738,18.5224471 17.869959,18.4730118 C16.5886982,18.4230588 15.7407251,17.7358824 15.46401,16.5041412 C15.1322619,14.7519059 15.5205932,12.6699294 15.5534063,12.5011765 C15.8882549,11.3250824 16.7421704,10.7432471 17.9952689,10.7727529 C19.2258891,10.8004471 20.1743683,11.5298118 20.3131134,12.8068471 C20.443074,14.0013176 20.445916,15.2309882 20.3182809,16.4259765 Z M20.6854258,9.29823529 C20.6329765,9.24 20.581044,9.18409412 20.5363458,9.13724706 L20.5363458,9.13672941 C20.5291114,9.12948235 20.5236857,9.12327059 20.5164513,9.11602353 C20.4541839,9.05131765 20.4105192,9.00809412 20.4105192,9.00809412 C19.4036482,7.98211765 19.0235847,7.72717647 18.2347786,7.49397647 C15.2009885,6.59896471 12.2475517,8.18995294 11.3125077,11.2474353 C10.7378911,13.1262353 10.7296232,15.0601647 11.0665387,16.9625176 C11.7941109,21.0827294 14.8534798,22.4622588 18.1138611,21.7823294 C19.1142729,21.5737176 19.8581224,20.9494353 20.5477141,20.0805647 C20.5477141,20.0805647 20.6099815,20.0044706 20.6859425,19.8564235 L20.6859425,21.6692235 L24.8578561,21.6692235 L24.8578561,7.50536471 L20.6859425,7.50536471 L20.6859425,9.29823529 L20.6854258,9.29823529 Z" id="Fill-4"></path>
                <path d="M37.6004463,20.6543765 C37.4069265,19.9449412 37.1865362,19.2450824 36.9733803,18.5692941 L36.7721094,17.8176706 C36.7721094,17.8176706 31.5429425,20.3321412 30.7275242,15.554 C30.65208,14.7653647 30.675075,13.9513647 30.7835907,13.1730824 C30.9869285,11.7042588 31.8814083,10.9176941 33.3042564,10.7828471 C33.7853428,10.7370353 34.2855487,10.7603294 34.7614678,10.8410824 C35.4094618,10.9505647 36.0422119,11.1462353 36.7514398,11.3214588 C36.9979255,10.5659529 37.2500955,9.81821176 37.4849545,9.06555294 C37.5219015,8.94778824 37.5526477,8.84607059 37.5766762,8.75496471 L37.5771929,8.75496471 L37.69501,8.3028 C37.6655557,8.24249412 37.5942454,8.18037647 37.4986482,8.11955294 L37.4986482,8.12007059 C37.3785057,8.01938824 37.1736177,7.93552941 36.8537546,7.81802353 C36.7258611,7.77143529 36.5974508,7.72976471 36.4690405,7.68938824 C36.3540655,7.65289412 36.2791379,7.63141176 36.2791379,7.63141176 L36.2796547,7.63141176 C34.9058971,7.23774118 33.4954508,7.20745882 32.0627846,7.35861176 C29.0429465,7.67825882 26.9935492,9.46336471 26.4248751,12.4100706 C26.1264568,13.9606824 26.1404088,15.5301882 26.4830085,17.0854588 C26.9961329,19.4143529 28.4052874,20.9191529 30.6962614,21.5920941 C32.1911949,22.0308 33.7230755,22.0528 35.2472049,21.8149412 C35.8882229,21.7145176 36.8075062,21.3816706 37.4673853,21.1445882 L37.7185217,21.0560706 L37.5999295,20.6533412 L37.6004463,20.6543765 Z" id="Fill-5"></path>
                <path d="M47.3451599,13.1818824 L42.5146592,13.1818824 C42.5397211,12.2193176 42.6598636,11.3245647 43.5140375,10.7797412 C44.420919,10.2025647 45.4228811,10.1810824 46.3555997,10.6984706 C47.2983948,11.2202588 47.3722889,12.1626353 47.3451599,13.1818824 Z M51.3661849,15.1129647 C51.3462904,14.1325412 51.3594673,13.1474588 51.2209805,12.1838588 C50.8393668,9.54152941 49.2333338,7.86952941 46.6364488,7.43289412 C45.6453383,7.26672941 44.5971279,7.28872941 43.5899985,7.38501176 C40.8336987,7.64823529 38.7414118,9.36811765 38.3127746,11.9563529 C38.0523368,13.5266353 38.019007,15.1929412 38.2295792,16.7696941 C38.5473753,19.1418118 39.7002259,20.6528235 41.6951069,21.3780471 L41.6961404,21.3780471 C41.7046667,21.3785647 41.7134513,21.3801176 41.7222359,21.3811529 C41.7212024,21.3821882 41.7217191,21.3821882 41.7212024,21.3827059 C42.6317011,21.6555059 47.0878226,22.8225412 51.0160925,20.8456471 L50.8582279,20.2664 C50.8566777,20.2674353 50.8543523,20.2674353 50.8528021,20.2674353 C50.670909,19.4945882 50.452069,18.7302824 50.2461474,17.9641647 L50.2241859,17.8891059 C50.2241859,17.8891059 50.1425407,17.9183529 49.9975947,17.9646824 C49.9944943,17.9652 49.9903603,17.9652 49.9872599,17.9657176 C49.8157016,18.0104941 49.6464688,18.0630353 49.478011,18.1194588 C49.4464898,18.1298118 49.4157436,18.1396471 49.3844808,18.1489647 C48.7897111,18.3166824 47.9399295,18.5234824 47.042091,18.6391765 C46.2886817,18.7152706 45.5277796,18.7183765 44.7593848,18.6526353 C43.5119705,18.4458353 42.5572904,17.7765176 42.603022,16.1940706 L43.3158671,16.1940706 C45.7613468,16.1940706 48.2063098,16.1940706 50.6523063,16.1935529 C50.7104398,16.1935529 50.7696067,16.1940706 50.8274818,16.1930353 L50.826965,16.1940706 C50.826965,16.1940706 51.3524913,16.1873412 51.3744528,16.1821647 C51.3744528,16.1821647 51.373936,16.0431765 51.3744528,16.0263529 L51.3661849,15.1129647 Z" id="Fill-6"></path>
                <polygon id="Fill-7" points="112.327745 7.65289412 107.585607 7.65289412 103.466918 14.1032941 103.466918 0.0126823529 98.9963278 0.555435294 98.9963278 21.6692235 103.466918 21.6692235 103.466918 15.2076941 107.585607 21.6785412 112.327745 21.6785412 107.858188 14.6540706"></polygon>
                <path d="M93.0315792,16.2171059 C93.0165937,16.3108 93.0010915,16.4024235 92.9801634,16.4943059 C92.6822619,17.8156 91.7255147,18.5294353 90.4483878,18.4709412 C89.0751469,18.4067529 88.1331269,17.6031059 88.0005827,16.2290118 C87.9052439,15.2252941 87.8964593,14.1998353 87.9796547,13.1950824 C88.1121989,11.6087529 89.1012424,10.7411765 90.5873913,10.7706824 C91.8061264,10.7942353 92.6765777,11.4871059 92.9868811,12.6626824 C93.2672134,13.8449882 93.0597416,15.9484471 93.0315792,16.2171059 Z M92.8429685,7.56152941 C91.2893848,7.14482353 89.7195237,7.14974118 88.1695572,7.5636 C85.8493873,8.18296471 84.2937366,9.6536 83.7924973,11.9933647 C83.5188826,13.2709176 83.4643663,14.6279294 83.5369685,15.9378353 C83.7012924,18.9329412 85.550969,21.0669412 88.4196602,21.7290118 C88.4607411,21.7388471 88.5028556,21.7458353 88.5439365,21.7551529 L88.542903,21.7551529 C88.542903,21.7551529 88.5501374,21.7567059 88.563056,21.7592941 C88.6733803,21.7815529 88.7849965,21.802 88.8958376,21.8185647 C88.9327846,21.8221882 88.9702484,21.8255529 89.0071954,21.8276235 C89.0082289,21.8286588 89.0092624,21.8286588 89.0102959,21.8286588 C89.1505912,21.8545412 89.3164653,21.8739529 89.4911239,21.8879294 C90.0538556,21.9477176 90.7698011,21.9901647 91.3656042,21.9197647 C91.3684463,21.9187294 91.3705132,21.9187294 91.3746472,21.9176941 C91.4061684,21.9171765 91.4358811,21.9171765 91.465077,21.9156235 C94.4288486,21.7608471 96.6777081,19.8887765 97.33397,17.0186824 C97.6941389,15.444 97.6941389,13.8610353 97.3468886,12.2850588 C96.7999175,9.81174118 95.3034338,8.22049412 92.8429685,7.56152941 Z" id="Fill-8"></path>
            </g>
            <g id="samsung" transform="translate(269.000000, 316.000000)" fill-rule="nonzero">
                <path d="M90.484833,23.3942615 C81.5175586,27.2725282 69.6362953,30.7392262 56.3985566,33.0448114 C26.7502242,38.2092072 1.52817933,35.5886277 0.0661344997,27.1930891 C-0.725231913,22.6464108 5.61798883,17.3386913 16.3113214,12.6079132 C15.7732041,12.998296 15.4027195,13.5621562 15.2758885,14.3393767 C15.1955823,14.8389284 15.1837726,15.2841553 15.3006889,15.8415746 C15.7860689,18.1125861 19.7340623,18.7703882 20.3056534,20.2088136 C20.4143029,20.4780755 20.3812356,20.8241006 20.3304538,21.0331329 C20.2371569,21.4027775 19.9867906,21.7795079 19.2475014,21.7795079 C18.5507272,21.7795079 18.1279388,21.380339 18.1279388,20.7697758 L18.1279388,19.6939092 L15.1471624,19.6939092 L15.1448004,20.5548387 C15.1448004,23.0325205 17.0957682,23.7800765 19.1860908,23.7800765 C21.1961072,23.7800765 22.8518316,23.0927501 23.1151886,21.2409841 C23.2498196,20.2808529 23.1494369,19.6525752 23.1033789,19.4151996 C22.6345325,17.0886823 18.4160962,16.3942701 18.1019574,15.0928376 C18.0488136,14.8696337 18.0641662,14.633439 18.0901476,14.5070749 C18.1669109,14.1527829 18.4101914,13.7618808 19.1057846,13.7618808 C19.7553198,13.7618808 20.1391361,14.1634117 20.1391361,14.7704319 L20.1391361,15.4565774 L22.9108803,15.4565774 L22.9108803,14.6759541 C22.9108803,12.254959 20.7378896,11.8770476 19.1636523,11.8770476 C18.6183277,11.8770476 18.1004999,11.9267393 17.6302956,12.0366819 C26.5241308,8.26518633 38.167681,4.90319526 51.1054347,2.65010388 C80.7549481,-2.51665391 105.972269,0.103925642 107.431952,8.49828321 C108.209915,12.9565148 102.126906,18.1480056 91.8073787,22.8097524 C92.4039918,22.3737827 92.8059084,21.7267861 92.8894478,20.8158338 C92.922515,20.4450082 92.9272389,20.2914817 92.9296009,20.0836304 L92.9296009,17.1004921 L88.9886933,17.1004921 L88.9886933,18.7231493 L90.1295134,18.7231493 L90.1295134,20.3363587 C90.1306944,20.4768945 90.1247895,20.631602 90.104713,20.7591471 C90.0527501,21.0555714 89.7716785,21.5645708 88.9662548,21.5645708 C88.162012,21.5645708 87.8821214,21.0567523 87.8337015,20.7591471 C87.811263,20.631602 87.8029962,20.4768945 87.8053581,20.3363587 L87.8053581,15.25345 C87.8053581,15.073942 87.8183488,14.8755385 87.852597,14.7290979 C87.9116457,14.4527501 88.1490213,13.9189502 88.9591689,13.9189502 C89.8059267,13.9189502 90.0196829,14.4834554 90.0669218,14.7290979 C90.0999891,14.8873483 90.1058939,15.1530672 90.103532,15.1518863 L90.103532,15.7742592 L92.9059814,15.7742592 L92.9059814,15.4034336 C92.9059814,15.4034336 92.9177911,15.0255221 92.881181,14.6712302 C92.6768726,12.5903554 90.9514707,11.9254675 88.9804265,11.9254675 C87.0070202,11.9254675 85.3229524,12.5938983 85.076129,14.6712302 C85.0548715,14.856643 85.0300711,15.206211 85.0300711,15.4034336 L85.0277091,20.0836304 C85.0312521,20.2914817 85.0359759,20.4450082 85.0678622,20.8158338 C85.255637,22.8376599 87.0070202,23.5592346 88.9804265,23.5592346 C89.5058216,23.5592346 90.0158426,23.5079034 90.484833,23.3942615 Z M79.5267359,20.9563696 L79.4653253,20.9563696 L76.9108803,12.2301586 L72.7833789,12.2301586 L72.7833789,23.2285621 L75.5173319,23.2285621 L75.3649863,14.2023838 L75.424035,14.2023838 L78.1697977,23.2285621 L82.126058,23.2285621 L82.126058,12.2301586 L79.3743904,12.2301586 L79.5267359,20.9563696 Z M29.5089776,13.2599672 L29.5715692,13.2599672 L31.0525096,23.3442974 L34.0415528,23.3442974 L31.9902023,12.2301586 L27.0466484,12.2301586 L24.9858502,23.3442974 L27.9867031,23.3442974 L29.5089776,13.2599672 Z M42.4701586,20.7260798 L42.4111099,20.7260798 L41.038819,12.2301586 L36.5038819,12.2301586 L36.2582395,23.3442974 L39.0417933,23.3442974 L39.1114707,13.3520831 L39.1717004,13.3520831 L41.0305522,23.3442974 L43.8507162,23.3442974 L45.7083871,13.3520831 L45.7662548,13.3520831 L45.8394751,23.3442974 L48.6171241,23.3442974 L48.3762056,12.2301586 L43.8436304,12.2301586 L42.4701586,20.7260798 Z M56.4457955,20.188737 C56.555626,20.455637 56.5201968,20.7922143 56.470596,21.0012466 C56.379661,21.3697102 56.1316566,21.7405358 55.3970913,21.7405358 C54.7097649,21.7405358 54.2905194,21.3413669 54.2905194,20.7449754 L54.2881575,19.6785566 L51.3380864,19.6785566 L51.3345435,20.5276763 C51.3345435,22.9805577 53.2677966,23.7210279 55.3368617,23.7210279 C57.3256206,23.7210279 58.9659923,23.0431493 59.2246255,21.2079169 C59.3592564,20.2548715 59.2635976,19.6348606 59.2151777,19.4022089 C58.7486933,17.0969492 54.572772,16.4096227 54.2621761,15.121181 C54.2090323,14.899158 54.2243849,14.6653253 54.2515473,14.546047 C54.3306725,14.1893931 54.5692291,13.8079388 55.2577365,13.8079388 C55.9013669,13.8079388 56.2769163,14.2000219 56.2769163,14.8023182 L56.2769163,15.4813778 L59.027403,15.4813778 L59.027403,14.7090213 C59.027403,12.3140077 56.8721268,11.9384582 55.3132422,11.9384582 C53.3587315,11.9384582 51.7561509,12.5832695 51.4668125,14.3795298 C51.3865063,14.8719956 51.3782395,15.3089557 51.4927939,15.8640131 C51.971088,18.1114051 55.8801093,18.7644833 56.4457955,20.188737 Z M65.7813887,21.6814872 C65.0043084,21.6814872 64.7704757,21.1476873 64.710246,20.8748824 C64.6889885,20.7556042 64.6842646,20.5938108 64.6842646,20.4497321 L64.6842646,12.2254347 L61.8759103,12.2254347 L61.8759103,20.1981848 C61.8700055,20.4024932 61.890082,20.8229196 61.8995298,20.9280262 C62.0943904,23.0029962 63.7359431,23.6761509 65.7802078,23.6761509 C67.8221104,23.6761509 69.4624822,23.0029962 69.6597048,20.9280262 C69.6691525,20.8229196 69.6892291,20.4024932 69.6833242,20.1981848 L69.6833242,12.2254347 L66.872608,12.2254347 L66.872608,20.4497321 C66.8749699,20.5938108 66.8690651,20.7544232 66.8466266,20.8748824 C66.7934828,21.1476873 66.5525642,21.6814872 65.7813887,21.6814872 Z" id="Combined-Shape"></path>
            </g>
        </g>
    </g>
</svg>