<?xml version="1.0" encoding="UTF-8"?>
<svg width="256px" height="256px" viewBox="0 0 256 256" version="1.1" xmlns="http://www.w3.org/2000/svg" xmlns:xlink="http://www.w3.org/1999/xlink">
    <!-- Generator: Sketch 42 (36781) - http://www.bohemiancoding.com/sketch -->
    <title>gi</title>
    <desc>Created with Sketch.</desc>
    <defs></defs>
    <g id="gitignore.com" stroke="none" stroke-width="1" fill="none" fill-rule="evenodd">
        <g id="gi">
            <path d="M60.1215383,145.121088 L70,154.99955 L46.00045,179 L40.0001125,172.999662 L40.0001125,165.242514 L60.1215383,145.121088 Z M33.999775,142.999775 L33.999775,167.000225 L22,154.99955 L33.999775,142.999775 Z M55.8789117,140.878462 L40.0001125,156.757261 L40.0001125,136.999437 L46.00045,131 L55.8789117,140.878462 Z" id="Page-1" fill="#E15B39"></path>
            <path d="M87.136,191.632 L85.264,173.344 C115.36,170.752 118.816,169.744 119.248,153.472 C114.928,156.496 109.456,158.656 102.544,158.656 C87.712,158.656 76.336,147.136 76.336,128.992 C76.336,106.24 94.192,91.264 116.512,91.264 C124,91.264 131.776,92.56 139.264,94.864 C139.552,105.232 139.696,128.128 139.696,143.536 C139.696,171.472 129.904,189.472 87.136,191.632 Z M110.608,142.96 C113.488,142.96 116.368,142.528 119.248,141.52 L119.248,109.984 C115.648,108.976 112.336,108.4 109.024,108.4 C101.104,108.4 96.496,113.584 96.496,124.24 C96.496,137.2 102.832,142.96 110.608,142.96 Z M202.336,83.056 L203.632,62.176 L182.176,62.176 L180.88,83.056 L202.336,83.056 Z M224.224,166 L225.952,150.736 L202.48,150.736 L202.48,93.136 L159.424,93.136 L157.84,107.68 L181.888,108.832 L181.888,150.736 L158.416,150.736 L158.416,166 L224.224,166 Z" fill="#171219"></path>
        </g>
    </g>
</svg>