<?xml version="1.0" encoding="UTF-8"?>
<svg width="340px" height="75px" viewBox="0 0 340 75" version="1.1" xmlns="http://www.w3.org/2000/svg" xmlns:xlink="http://www.w3.org/1999/xlink">
    <!-- Generator: Sketch 42 (36781) - http://www.bohemiancoding.com/sketch -->
    <title>Artboard</title>
    <desc>Created with Sketch.</desc>
    <defs></defs>
    <g id="Gitignore" stroke="none" stroke-width="1" fill="none" fill-rule="evenodd">
        <g id="Artboard">
            <g id="gitignoreio-logo" transform="translate(13.000000, 16.000000)">
                <path d="M12.7071794,27.7070294 L16,30.99985 L8.00015,39 L6.0000375,36.9998875 L6.0000375,34.4141713 L12.7071794,27.7070294 Z M3.999925,26.999925 L3.999925,35.000075 L0,30.99985 L3.999925,26.999925 Z M11.2929706,26.2928206 L6.0000375,31.5857537 L6.0000375,24.9998125 L8.00015,23 L11.2929706,26.2928206 Z" id="Page-1" fill="#E15B39"></path>
                <path d="M24.712,43.544 L24.088,37.448 C34.12,36.584 35.272,36.248 35.416,30.824 C33.976,31.832 32.152,32.552 29.848,32.552 C24.904,32.552 21.112,28.712 21.112,22.664 C21.112,15.08 27.064,10.088 34.504,10.088 C37,10.088 39.592,10.52 42.088,11.288 C42.184,14.744 42.232,22.376 42.232,27.512 C42.232,36.824 38.968,42.824 24.712,43.544 Z M32.536,27.32 C33.496,27.32 34.456,27.176 35.416,26.84 L35.416,16.328 C34.216,15.992 33.112,15.8 32.008,15.8 C29.368,15.8 27.832,17.528 27.832,21.08 C27.832,25.4 29.944,27.32 32.536,27.32 Z M63.112,7.352 L63.544,0.392 L56.392,0.392 L55.96,7.352 L63.112,7.352 Z M70.408,35 L70.984,29.912 L63.16,29.912 L63.16,10.712 L48.808,10.712 L48.28,15.56 L56.296,15.944 L56.296,29.912 L48.472,29.912 L48.472,35 L70.408,35 Z M94.168,35.336 L94.888,29.768 C88.216,29.624 85.96,28.952 85.96,25.544 L85.96,15.848 L94.408,15.848 L94.408,10.712 L85.96,10.712 L85.96,3.752 L79.192,4.376 L79.192,10.712 L74.872,10.712 L74.296,15.848 L79.192,15.848 L79.192,26.6 C79.192,33.08 82.792,35.624 94.168,35.336 Z M115.912,7.352 L116.344,0.392 L109.192,0.392 L108.76,7.352 L115.912,7.352 Z M123.208,35 L123.784,29.912 L115.96,29.912 L115.96,10.712 L101.608,10.712 L101.08,15.56 L109.096,15.944 L109.096,29.912 L101.272,29.912 L101.272,35 L123.208,35 Z M130.312,43.544 L129.688,37.448 C139.72,36.584 140.872,36.248 141.016,30.824 C139.576,31.832 137.752,32.552 135.448,32.552 C130.504,32.552 126.712,28.712 126.712,22.664 C126.712,15.08 132.664,10.088 140.104,10.088 C142.6,10.088 145.192,10.52 147.688,11.288 C147.784,14.744 147.832,22.376 147.832,27.512 C147.832,36.824 144.568,42.824 130.312,43.544 Z M138.136,27.32 C139.096,27.32 140.056,27.176 141.016,26.84 L141.016,16.328 C139.816,15.992 138.712,15.8 137.608,15.8 C134.968,15.8 133.432,17.528 133.432,21.08 C133.432,25.4 135.544,27.32 138.136,27.32 Z M164.488,15.848 C166.456,15.848 167.752,16.952 167.752,20.84 L167.752,35 L174.568,35 L174.568,18.392 C174.568,12.488 171.976,10.04 167.848,10.04 C164.584,10.04 162.232,11.528 160.408,13.256 L160.072,10.568 L153.736,10.904 C154.072,16.328 154.168,23.768 154.168,35 L160.984,35 C160.984,27.8 160.888,21.608 160.792,17 C161.896,16.28 163.096,15.848 164.488,15.848 Z M189.64,35.768 C183.544,35.768 179.368,31.496 179.368,23.528 C179.368,15.608 184.888,9.944 191.608,9.944 C197.704,9.944 201.88,14.216 201.88,22.184 C201.88,30.392 196.312,35.768 189.64,35.768 Z M190.888,30.296 C193.432,30.296 194.968,28.136 194.968,23.384 C194.968,18.008 193.288,15.416 190.408,15.416 C187.864,15.416 186.328,17.576 186.328,22.28 C186.328,27.704 187.96,30.296 190.888,30.296 Z M225.064,35 L225.64,29.912 L219.016,29.912 C218.92,25.256 218.872,21.8 218.824,18.68 C221.608,17.672 224.728,17.096 228.232,16.952 L227.992,9.704 C223.768,10.328 220.552,12.344 218.488,14.936 L218.008,10.712 L207.256,10.712 L206.728,15.56 L212.104,15.944 C212.2,19.736 212.248,24.104 212.296,29.912 L206.92,29.912 L206.92,35 L225.064,35 Z M252.856,35.576 C236.632,36.008 232.552,31.304 232.552,23.384 C232.552,15.8 238.264,10.04 244.744,10.04 C251.704,10.04 254.92,15.416 254.056,24.296 L239.416,24.68 C240.184,28.712 243.784,29.816 253.48,29.96 L252.856,35.576 Z M243.496,15.56 C240.904,15.56 239.512,16.904 239.272,20.744 C241.48,20.696 244.984,20.552 247.48,20.504 C247.336,17.336 246.232,15.56 243.496,15.56 Z M262.672,35 L262.864,30.872 L259.072,30.872 L258.88,35 L262.672,35 Z M278.88,7.88 L279.264,1.64 L277.008,1.64 L276.816,7.88 L278.88,7.88 Z M288.432,35 L288.576,33.32 L279.168,33.32 L279.168,11.96 L267.984,11.96 L267.792,13.4 L277.056,13.784 L277.056,33.32 L267.648,33.32 L267.648,35 L288.432,35 Z M303.312,35.624 C297.696,35.624 293.472,31.112 293.472,23.768 C293.472,16.328 298.272,11.384 303.888,11.384 C309.6,11.384 313.728,15.896 313.728,23.192 C313.728,30.68 308.976,35.624 303.312,35.624 Z M303.6,33.8 C308.304,33.8 311.664,30.056 311.664,23.624 C311.664,17.048 308.304,13.208 303.6,13.208 C298.944,13.208 295.584,16.952 295.584,23.336 C295.584,29.96 298.944,33.8 303.6,33.8 Z" id="gitignore.io" fill="#171219"></path>
            </g>
        </g>
    </g>
</svg>