<svg width="400" height="75" xmlns="http://www.w3.org/2000/svg">
  <g fill="#204ECF" fill-rule="evenodd">
    <path d="M27.7072 45.707L31 49 23.0002 57 21 54.9999v-2.5857l6.7072-6.7072zM18.9999 45v8L15 49l4-4zm7.293-.7072L21 49.5858v-6.586L23.0002 41l3.2928 3.2928zM68.528 23.264c-3.072 1.824-6.336 3.408-12 3.264-6.672 0-11.376 3.552-11.376 9.312 0 3.312 1.296 5.568 4.512 7.296-1.824 1.152-2.832 2.976-2.832 4.848 0 2.688 2.304 5.04 7.872 5.04h4.032c2.544 0 3.696 1.056 3.696 2.544 0 1.68-1.104 2.928-5.904 2.928-4.848 0-5.808-1.008-5.808-3.216H44c0 5.04 2.544 8.208 12.336 8.208 9.024 0 13.632-3.216 13.632-8.448 0-4.272-3.792-7.392-9.696-7.392h-4.224c-2.448 0-2.784-.768-2.784-1.536 0-.576.288-1.152.816-1.44.912.192 1.872.288 2.976.288 6.576 0 10.8-3.6 10.8-8.544 0-3.312-1.728-5.184-4.944-6.576 3.216 0 5.568-.288 7.344-1.008l-1.728-5.568zM56.72 31.472c2.544 0 3.888 1.344 3.888 4.176 0 2.928-1.392 4.464-3.888 4.464-2.352 0-3.888-1.584-3.888-4.368 0-2.64 1.488-4.272 3.888-4.272zM85.664 14c-2.64 0-4.512 1.872-4.512 4.272 0 2.448 1.872 4.272 4.512 4.272 2.64 0 4.464-1.824 4.464-4.272 0-2.4-1.824-4.272-4.464-4.272zm4.56 13.344H75.68v5.184h6.96v15.12h-7.2v5.184h21.312v-5.184h-6.528V27.344zM126.416 51.344l-2.496-4.848c-1.2.672-2.688 1.152-4.464 1.152-2.544 0-3.648-.96-3.648-3.504V32.576h7.44l.768-5.232h-8.208v-6.432l-7.584.912v5.52h-5.328v5.232h5.328v11.568c0 5.856 3.168 9.504 9.84 9.504 3.504 0 6.336-1.008 8.352-2.304zM143.264 14c-2.64 0-4.512 1.872-4.512 4.272 0 2.448 1.872 4.272 4.512 4.272 2.64 0 4.464-1.824 4.464-4.272 0-2.4-1.824-4.272-4.464-4.272zm4.56 13.344H133.28v5.184h6.96v15.12h-7.2v5.184h21.312v-5.184h-6.528V27.344zM183.728 23.264c-3.072 1.824-6.336 3.408-12 3.264-6.672 0-11.376 3.552-11.376 9.312 0 3.312 1.296 5.568 4.512 7.296-1.824 1.152-2.832 2.976-2.832 4.848 0 2.688 2.304 5.04 7.872 5.04h4.032c2.544 0 3.696 1.056 3.696 2.544 0 1.68-1.104 2.928-5.904 2.928-4.848 0-5.808-1.008-5.808-3.216h-6.72c0 5.04 2.544 8.208 12.336 8.208 9.024 0 13.632-3.216 13.632-8.448 0-4.272-3.792-7.392-9.696-7.392h-4.224c-2.448 0-2.784-.768-2.784-1.536 0-.576.288-1.152.816-1.44.912.192 1.872.288 2.976.288 6.576 0 10.8-3.6 10.8-8.544 0-3.312-1.728-5.184-4.944-6.576 3.216 0 5.568-.288 7.344-1.008l-1.728-5.568zm-11.808 8.208c2.544 0 3.888 1.344 3.888 4.176 0 2.928-1.392 4.464-3.888 4.464-2.352 0-3.888-1.584-3.888-4.368 0-2.64 1.488-4.272 3.888-4.272zM189.872 52.832h7.584V35.024c1.44-1.824 2.832-2.928 4.464-2.928 1.872 0 2.448 1.056 2.448 4.224v16.512h7.584v-18.72c0-4.848-2.64-7.632-7.008-7.632-3.264 0-5.664 1.248-7.92 3.792l-.528-2.928h-6.624v25.488zM229.712 26.48c-7.824 0-12.384 5.472-12.384 13.584 0 8.592 4.56 13.584 12.384 13.584 7.824 0 12.384-5.088 12.384-13.632 0-8.16-4.512-13.536-12.384-13.536zm0 5.616c3.12 0 4.56 2.4 4.56 7.92 0 5.712-1.44 8.064-4.56 8.064-3.12 0-4.56-2.352-4.56-8.016 0-5.568 1.44-7.968 4.56-7.968zM266.912 26.576c-4.08 0-6.864 2.112-8.688 6.48l-1.344-5.712h-9.168v5.04h3.36v15.36h-3.36v5.088h15.984v-5.088h-5.04v-7.296c1.152-3.792 3.408-6.624 6.288-7.104V38h4.8l1.392-10.656c-1.2-.48-2.496-.768-4.224-.768zM282.848 42.32h16.512c.096-.768.144-1.872.144-2.736 0-8.208-4.656-13.104-11.952-13.104-8.016 0-12.432 6.096-12.432 13.632 0 7.92 4.512 13.536 13.248 13.536 4.32 0 7.776-1.44 10.176-3.504l-3.024-4.128c-2.016 1.296-4.224 2.112-6.528 2.112-3.264 0-5.616-1.632-6.144-5.808zm4.704-10.752c3.216 0 4.512 2.448 4.56 6.144h-9.36c.336-4.224 2.112-6.144 4.8-6.144zM312.176 49.376c0 2.256 1.632 3.936 3.888 3.936 2.256 0 3.888-1.68 3.888-3.936 0-2.16-1.632-3.84-3.888-3.84-2.256 0-3.888 1.68-3.888 3.84zM344.912 16.256c-1.44 0-2.4 1.008-2.4 2.352 0 1.44.96 2.448 2.4 2.448 1.536 0 2.544-1.008 2.544-2.448 0-1.344-1.008-2.352-2.544-2.352zm2.832 11.376H337.04v2.592h7.728V50.24H336.8v2.592h18.24V50.24h-7.296V27.632zM373.76 27.152c-6.912 0-10.464 5.424-10.464 13.104 0 7.776 3.504 13.056 10.416 13.056 6.864 0 10.416-5.568 10.416-13.104 0-7.92-3.456-13.056-10.368-13.056zm0 2.64c4.704 0 7.104 3.36 7.104 10.416 0 7.056-2.4 10.464-7.152 10.464-4.752 0-7.152-3.408-7.152-10.416 0-7.104 2.496-10.464 7.2-10.464z"/>
  </g>
</svg>
