<svg width="109" height="30" xmlns="http://www.w3.org/2000/svg">
  <path d="M63.5325 7.4097c2.1584 0 3.9962.832 5.4664 2.449 1.4859 1.5699 2.2366 3.7206 2.2289 6.3972-.0079 2.6217-.7743 4.9058-2.2914 6.5227-1.5015 1.6092-3.4175 2.4255-5.701 2.4255-1.9738-.0075-3.756-.7127-4.9413-1.9257l-.1733-.1858L58.1052 30l-3.9024-.0078v-.2905l.047-22.0957 3.8788.0078-.0078 2.6923c1.2747-1.4364 3.3315-2.8964 5.4117-2.8964zM8.0237 0l12.5516 12.6217-9.4078 9.4034 4.309 4.3328-2.878 2.8807L0 16.5777l9.3688-9.372-4.27-4.2936L8.0238 0zm80.5026 7.4647c2.2288 0 3.7694.5023 4.9503 1.4756 1.1293.9396 1.7362 2.6088 1.7875 4.3683l.0034.2785-.0235 11.3972h-3.9493v-.479a138.7793 138.7793 0 00-.0078-1.499c-1.1418 1.5855-2.7371 2.3548-4.8642 2.3548-1.6892 0-3.1125-.5102-4.1605-1.46-1.0557-.9655-1.6188-2.2841-1.611-3.8226.0153-2.889 2.0546-4.885 5.627-5.517l.293-.0482 4.7392-.7456v-.3768c0-.8006-.2346-1.7661-.7039-2.1586-.4848-.4081-1.0635-.7535-2.0802-.7535-2.7856 0-3.3538 2.0556-3.3848 3.088l-.0014.091-3.5035.047c0-1.5227.7038-3.4929 2.135-4.733 1.1408-.99 2.8081-1.4515 4.4217-1.5024l.3017-.0047h.0313zM73.222 3.0063l3.8867.0078-.0078 4.6547 3.613.0078-.0078 3.2418-3.613-.0079-.0157 8.7363c0 .9576.2034 1.5855.6178 1.8838.4088.293 1.2127.0596 1.318.0272l.0115-.0036.352 3.3987s-1.2279.314-2.0099.314c-1.0166 0-1.8769-.259-2.5494-.7693-1.0224-.7733-1.5746-2.1032-1.6232-3.9496l-.0035-.3125.0157-9.325-3.2611-3.2574 3.2689.0078.0078-4.6546zM50.2614 9.9608c1.1183 1.1616 2.4556 3.2103 2.4478 6.3971-.0079 3.1868-1.3452 5.2277-2.4635 6.3815-1.5328 1.5699-3.613 2.4725-5.7088 2.4725-.086 0-.172 0-.258-.0078-2.2445-.0079-4.223-.8085-5.881-2.3784-1.6657-1.5855-2.5103-3.7676-2.5103-6.507s.8524-4.9215 2.526-6.4992c1.65-1.562 3.6286-2.3548 5.873-2.3548 2.221-.0628 4.3872.8477 5.9748 2.496zm-9.009-7.1978v3.854l-7.5232.0078L33.7448 25l-4.0588-.0078v-.3533l.0313-18.022h-7.6717l.0078-3.854h19.199zm55.892.259l3.5035.0078v.0942l-.0391 21.8525-3.4957-.0079v-.102l.0313-21.8446zm9.2201 16.6876c.7195 0 1.353.259 1.8613.777.5161.5181.7742 1.1382.7742 1.8682 0 .7378-.258 1.35-.7742 1.8524-.5162.518-1.134.7693-1.8613.7693-.7272 0-1.345-.2512-1.8456-.7693-.5083-.5023-.7664-1.1146-.7664-1.8524 0-.7221.2503-1.35.7664-1.8681.5162-.5181 1.134-.7771 1.8456-.7771zm.0157.4317c-.61 0-1.1261.2198-1.5484.6515-.4302.4238-.6413.9419-.6413 1.562 0 .6122.2033 1.1381.6334 1.5777.4223.4239.9385.6436 1.5563.6436.61 0 1.1261-.2197 1.5484-.6436.4223-.4317.6413-.9498.6413-1.5777 0-.6201-.219-1.1382-.6413-1.562-.4223-.4317-.9384-.6515-1.5484-.6515zm.172.7692c.5787 0 .9228.3454.9228.8163 0 .4004-.2971.7065-.7038.785l.7117 1.2716h-.485v.0078l-.7037-1.2559h-.477v1.256h-.4302v-2.8808h1.1652zm-.0625.3846h-.6726v.8792h.6726c.3753 0 .5552-.1413.5552-.4318 0-.2982-.1877-.4474-.5552-.4474zm-15.1793-4.3956l-3.8946.6594c-1.9003.3218-2.784 1.0675-2.7919 2.347-.0074 1.1787.8294 1.9624 2.1273 2.0352l.1798.0055h.0156c2.4862 0 4.2554-1.9438 4.359-4.764l.0048-.2438v-.0393zm-47.0472-5.9654c-1.306 0-2.44.5023-3.355 1.4992-.8993.9811-1.3607 2.292-1.3607 3.901 0 1.6092.4614 2.92 1.353 3.9012.9149 1.0047 2.0488 1.507 3.3548 1.5149 1.3295 0 2.4713-.5024 3.3863-1.4992.9228-1.0047 1.3842-2.3156 1.392-3.9011.0078-1.5934-.4614-2.9043-1.3842-3.9011-.915-1.0047-2.0568-1.515-3.3862-1.515zm18.3387.1177h-.0157c-1.306 0-2.393.4788-3.3158 1.4678-.915.9576-1.3764 2.2057-1.3842 3.7127 0 1.5228.4536 2.8886 1.3764 3.8854.9384.9655 2.0255 1.4443 3.3236 1.4443 1.3217 0 2.4322-.4866 3.3237-1.4364.9306-.989 1.3764-2.3548 1.3842-3.8776.0078-1.5149-.4614-2.763-1.3686-3.7127-.8837-.9811-2.002-1.4835-3.3236-1.4835zm-50.6446-.62c-.0717.013-.138.0479-.244.1455l-.0688.0663-5.3491 5.3611c-.1564.157-.1955.2276-.219.314a.4854.4854 0 000 .259c.0188.069.0526.1331.1414.2323l.0776.0817 1.697 1.7111c.1564.157.2268.1963.3128.2198a.4802.4802 0 00.258 0c.0718-.0262.1326-.0523.2369-.1466l.0682-.0653 5.349-5.361c.1565-.157.1956-.2277.219-.314a.4854.4854 0 000-.259c-.013-.072-.0477-.1385-.145-.245l-.066-.069-1.6971-1.7112c-.1564-.157-.2268-.1962-.3128-.2198a.4802.4802 0 00-.258 0z" fill="#FFF" fill-rule="evenodd"/>
</svg>
